<svg xmlns="http://www.w3.org/2000/svg" version="1.1" viewBox="0 0 1200 800" width="1200" height="800">
<rect fill="rgb(255,255,255)" x="0" y="0" width="1200" height="800"/><defs/><!--ITEM: Illustration component 1--><g transform="translate(501.0 267.0) rotate(0.0 110.0 110.0)  scale(8.333333333333334 8.333333333333334)"><svg width="26.4" height="26.4" viewBox="0.0 0.0 26.4 26.4"><circle cx="13.2" cy="13.2" fill="#142664" r="13.2"/><path d="m10.3 15c.4.4.9.4 1.3 0 1.6-1.6 5.9-5.9 7.5-7.5.4-.4.9-.4 1.3 0l1.8 1.8c.4.4.4.9 0 1.3-2.1 2.1-8.5 8.5-10.6 10.6-.4.4-.9.4-1.3 0-1.4-1.4-4.7-4.7-6.1-6.1-.4-.4-.4-.9 0-1.3.5-.5 1.3-1.3 1.8-1.8.2-.2.4-.3.7-.3.2 0 .5.1.7.3.7.8 2.1 2.2 2.9 3z" fill="#00e6b3"/></svg></g></svg>