<svg xmlns="http://www.w3.org/2000/svg" version="1.1" viewBox="0 0 240 240" width="240" height="240">
<rect fill="rgb(255,255,255)" x="0" y="0" width="240" height="240"/><defs/><!--ITEM: Illustration component 1--><g transform="translate(30.0 43.0) rotate(-16.114851079752004 121.5 116.5) translate(130.0 39.0) scale(0.11308111126622923 0.11485187558535022)"><svg width="203.39382716049363" height="269.9128755364806" viewBox="1149.6172839506173 339.5678111587983 203.39382716049363 269.9128755364806"><path d="m1180.5 760.7s15.6-117.7 18.6-173.2c2.3-43.4-7.4-86.8-29.3-124.4-2.6-4.5-5.7-8.7-9.2-12.4 0 0-46-3-42-43-26 15-57 15-33-11 59.5-64.5 99.8-77.5 126-70 35 10 71.5 54.4 84 87 53 138 64 411 57 548l-120-66z" fill="#f4ada2"/><path d="m1300.4 713.1c-.8-.5-77.6-52.5-104.4-78.5-.2 2.2-.3 4.3-.5 6.4 29.2 26.9 98.9 74.1 102.1 76.2z" fill="#9b3c82"/><path d="m1172.8 449c.6-1.7.5-3.4-.1-5 .7 0 1.4.1 2.1.1 9.3 0 11.8-4.1 12.4-6.1.4-1.3.4-2.8 0-4.1 6.7 1.5 14.2 2.6 22.6 2.9 1.6 2.6 3.2 5.4 4.8 8.5 14.7 28.3 30.7 44.9 55.1 57.1.3.2.7.3 1.1.3.9 0 1.8-.5 2.2-1.4.6-1.2.1-2.7-1.1-3.4-23.4-11.7-38.7-27.6-52.9-54.9-12-23.1-23.1-30.4-41.5-42.4-1.7-1.1-3.5-2.3-5.4-3.5-5.8-3.8-8.8-7.4-8.1-9.5 1.2-3.7 13.4-7.1 33.6-5.9 33.6 1.9 56.2 21.1 56.5 21.4 1 .9 2.6.8 3.5-.2s.8-2.6-.2-3.5c-1-.8-24.1-20.6-59.5-22.6-3.9-.2-12.1-.5-20 .4 10.3-6.6 20.3-13.2 28.3-18.9 1.1-.8 1.4-2.4.6-3.5s-2.4-1.4-3.5-.6c-26 18.5-71.7 45.8-85.1 53.7-.1 2.1.1 5.2.3 7.5 4.1 6.7 16.3 22.3 46.7 27.8.1.1.1.1.2.2 1.2.7 3.1 2.3 2.4 4.1-.7 1.9-3.3 3.5-7.2 3.2 1.4 1.5 2.8 3.2 4.1 4.8 4.2-.9 7-3.2 8.1-6.5zm-13.7-60c.4 3.8 3.9 7.9 10.4 12.3 1.9 1.2 3.7 2.4 5.4 3.5 13.8 9 22.9 15 31.4 26.8-9.9-.7-18.3-2.4-25.4-4.7-.2-.1-.4-.1-.6-.2-10.6-3.5-18.2-8.2-23.4-12.4-8.7-7-12.6-13.9-13.5-15.7 5-2.9 10.3-6.2 15.7-9.6zm-37.1 22.5c3.9-2.3 9.9-5.9 17.2-10.3 2.3 4.5 12.8 21.7 40.2 30.5 2.5 1.5 3.6 3.5 3.2 4.8-.5 1.5-3.8 3.6-13.2 2.2-32.7-4.9-44.7-22.2-47.4-27.2z" fill="#9b3c82"/><path d="m1586 205.5c22.5 43.1 61.5 83.1 157.5 107.1 66.8 16.7 114.4 56.7 133 114 20.7 63.8 4.3 145-63.3 210.4-125.7 121.6-49.8 191.7-44.7 309.6 5 115-91 131-123 120 0 0-23 125-169 149s66-1041 66-1041 37.3 19.1 43.5 30.9z" fill="#5b2448"/><path d="m440.2 606.5c28.1 104.1 14.4 149.6-33.7 178.9s-209-32.9 41.5-387.8c0 0-42.1 81.8-7.8 208.9z" fill="#5b2448"/><path d="m448 397.6-12.3 200.4c-14-6.8-28.3-12.7-43.1-17.6-20.7-6.9-41.9-12.6-63.3-17-27.5-5.8-55.2-9.9-83.2-12.2-86.1-53.3-42.8-137.7-42.8-137.7s63.7-8.7 142.9-13.2c32.4-1.9 67.5-3.1 101.8-2.7z" fill="#f4ada2"/><path d="m448 397.6-12.3 200.4c-14-6.8-28.3-12.7-43.1-17.6 0-7.2-.1-14.5-.2-21.9-1.1-103 55.6-160.9 55.6-160.9z" fill="#9b3c82"/><path d="m346.1 400.2-16.8 163.1c-27.5-5.8-55.2-9.9-83.2-12.2-86.1-53.3-42.9-137.7-42.9-137.7s63.8-8.6 142.9-13.2z" fill="#66b0f0"/><path d="m295.8 403.8-14 151.4c3.3.5 6.6.9 9.9 1.4l14.2-153.6c-3.4.2-6.8.5-10.1.8z" fill="#fff"/><path d="m942.5 509.7c-93-59-243-109-494.4-112 0 0-47.2 84.8-8.1 215.6s-33.5 172.1-33.5 172.1 397-213.7 536-275.7z" fill="#f94f46"/><path d="m99.3 169.9c-17.7 9.7-41.6 41.3-51 102.8l-45.8 299.2c62.4 6.5 170.7-25.5 243.6-20.7-2.6-28.3-39.6-35.4-43.8-103.6-2-32 1.7-41.4-1.1-78.1-.1-1.4-.3-2.8-.5-4.2 0-.4-.1-.8-.1-1.1-2.7-23.7-7.8-47-15-69.7-28.4-87.4-80.5-121-85.8-124.2-.1-.1-.2-.1-.3-.2-.2-.1-.2-.2-.2-.2z" fill="#fff"/><path d="m3.1 574.6h-.6c-1.4 0-2.5-1.1-2.5-2.5 0-.1 0-.3 0-.4l45.8-299.4c9.3-61.1 33.1-94.1 52.2-104.6.8-.4 1.7-.4 2.5 0l.1.1c.1.1.2.1.4.2.1 0 .1.1.2.1 6.8 4.2 61 39.9 89.3 126.9.9 2.8 21.9 68.3 17.6 122.2-.1 1.4-1.3 2.4-2.7 2.3s-2.4-1.3-2.3-2.7c4.2-52.9-16.5-117.5-17.4-120.2-26.9-82.9-77.6-118.1-86.5-123.8-17.9 10.6-39.6 42.3-48.5 100.2l-45.3 296.6c30.1-.2 61.8-4.7 95.3-9.3 45.7-6.4 92.9-13 146-11 1.4.1 2.5 1.2 2.4 2.6s-1.2 2.5-2.6 2.4c-52.6-2-99.6 4.6-145.1 11-34.5 4.7-67.2 9.3-98.3 9.3z" fill="#5b2448"/><path d="m116.8 559c-.1 0-.2 0-.3 0-1.4-.2-2.3-1.4-2.2-2.8.1-.8 2.6-19.7 25.7-41.3 4.8-4.5 9.1-8.1 12.8-11.3 14-11.9 21-17.9 30.4-44.9.5-1.3 1.9-2 3.2-1.5s2 1.9 1.5 3.2c-9.8 28.2-17.7 34.9-31.8 47-3.7 3.2-7.9 6.7-12.6 11.2-11.4 10.6-17.3 20.4-20.3 26.8-1.8 3.6-3.1 7.5-3.8 11.4-.3 1.2-1.3 2.2-2.6 2.2z" fill="#5b2448"/><path d="m71.4 568.5c-1.4 0-2.5-1.1-2.5-2.5 0-.8.4-1.6 1-2 4-3.3 7.5-7.1 10.3-11.5 4.8-7.1 10.6-19.3 11.2-36.5s-4.9-26.9-10.8-37.1c-4.4-7.6-9-15.5-10.8-26.7-2.3-14.3.9-24 4-33.3 3.6-11 7.4-22.3 2.4-42.2-8.2-32.6-11.3-63.1-9.2-90.7 3.3-42.4 18.6-78.2 45.7-106.3 1-1 2.6-.9 3.5 0s.9 2.4.1 3.4c-26.2 27.2-41.1 62-44.3 103.2-2.1 27.1 1 57 9 89.1 5.4 21.4 1.4 33.4-2.5 45-3 9.2-5.9 17.8-3.8 30.9 1.7 10.3 5.8 17.5 10.2 25 6 10.3 12.2 21 11.5 39.8-.7 18.5-7 31.6-12.2 39.3-5.7 8.4-11.2 12.4-11.4 12.6-.4.3-.9.5-1.4.5z" fill="#5b2448"/><path d="m44.9 549c-.7 0-1.4-.1-2.2-.2-6-.9-11-5.6-14-13.2-2.8-7.1-3.6-16.1-2.2-25.2 3-19.7 14.8-33.6 26.9-31.8s19.2 18.7 16.2 38.4c-2.8 18.6-13.4 32-24.7 32zm6.5-65.5c-8.6 0-17.5 12.2-19.9 27.7-1.3 8.3-.6 16.3 1.9 22.6 2.3 5.8 5.9 9.4 10.1 10.1 9 1.4 18.7-11.3 21.2-27.6s-3-31.3-12-32.7c-.4 0-.9-.1-1.3-.1z" fill="#5b2448"/><path d="m134.8 403.6c-4.1 0-7.5-3.4-7.5-7.5 0-3.4 2.3-6.4 5.6-7.3.4-.1 38-10.8 59.8-54.5 1.8-3.7 6.3-5.3 10-3.4 3.7 1.8 5.3 6.3 3.4 10 0 0 0 .1-.1.1-24.9 50-67.5 61.8-69.3 62.3-.6.2-1.2.3-1.9.3z" fill="#ffcf2d"/><path d="m126.4 365.1c-4.1 0-7.5-3.4-7.5-7.5 0-3.2 2.1-6.1 5.2-7.1.4-.1 40.9-14.1 58.2-57.5 1.5-3.8 5.9-5.7 9.7-4.2s5.7 5.9 4.2 9.7c-20 50.1-65.5 65.6-67.5 66.2-.7.3-1.5.4-2.3.4z" fill="#ffcf2d"/><path d="m121.7 321.5c-4.1 0-7.5-3.4-7.5-7.5 0-3.2 2-6 5-7.1.3-.1 34.8-13 49.9-52.1 1.5-3.9 5.8-5.8 9.7-4.4s5.8 5.8 4.4 9.7v.1c-17.7 45.8-57.2 60.3-58.9 60.9-.9.3-1.8.4-2.6.4z" fill="#ffcf2d"/><path d="m1019.5 568.7c59 60 158.9 170.6 239.6 310.1l46.4-56.1 305 108c24 250-158 391-344 384s-388-190-421-482c0 0 32-122 174-264z" fill="#f94f46"/><path d="m929.6 691.5c-1.2-1.2-3.1-1.1-4.2 0-1.8 1.9-43.4 45.1-79 148.1.6 4.5 1.2 9 1.8 13.5 36-109.9 81.1-156.9 81.5-157.4 1.1-1.1 1-3-.1-4.2z" fill="#fcb6b1"/><path d="m1461.5 377.7s-34-29-63 22c-27.2 47.9-26 194-64.5 262.5-38.2 68-118.5 150.5-118.5 150.5s54 134 192 166 201-80 277-18c22-132 70.2-407.4-78-618 0-0-59.9-48.2-145 35z" fill="#ffcf2d"/><path d="m1449 653.1c-6.8 44.2-12.6 82.4-18.4 105.4l4.8 1.2c5.9-23.3 11.8-61.6 18.5-105.9 15.8-103.5 37.5-245.2 75.9-287l-3.7-3.4c-39.4 43-60.3 179.8-77.1 289.7z" fill="#fff"/><path d="m1452.6 415.2c-.6 1.5-55 131.5-103 208.8-2.2 7-4.5 13.7-7.1 20.1 50.6-73.7 114-225.3 114.7-226.9z" fill="#fff"/><path d="m1606.3 343c-80.8-32.4-72.8 73.6-156.3 78.1 15-39.1 16-74.1 16-93.2 0-4-.3-8.1-1-12-2.8-17.4-11.1-30.8-16-34.1-26 20-58.3 33.4-72.1 30.1-34-8.1-50.6-73.9-55.6-94-8.6-2-21.3-11.9-13-19.5 3.8-3.6 7.6-7.6 9.1-12.7 1.6-5.2 1.5-11.7 1.5-17 0-4.1-.1-8.2-.3-12.3-.2-5.7-.5-11.4-.5-17.1v-.1c0-4.2.1-8.5.4-12.7.9-14 3.2-27.8 6.9-41.3 9.4-32.4 31.2-59.5 62.3-73.3 13.9-6 28.7-9.5 43.8-10.5h.2c1-.1 1.9-.1 2.9-.2 87.3-4.8 141.2 77.4 115.8 144.8l-4.9 43.7c2 17 19.7 90.2 60.8 153.3z" fill="#f4ada2"/><path d="m1318.6 155.5c86.6 18.5 162.9 3.2 162.9 3.2l-114.4-14.3-45.8-5.7-3.2-.4v.1c0 5.7.3 11.4.5 17.1z" fill="#9b3c82"/><circle cx="1426.6" cy="208.5" fill="#e57281" opacity=".52" r="27.1"/><path d="m1465.1 316c-2.8-17.4-11.1-30.8-16-34.1 9-8 12-11 22-21 5.1-5.1 10.4-12.3 17-9 8 4 13 36-23 64.1z" fill="#5b2448"/><path d="m1376.6 149.5c14.6 3 23.6 14.4 21.3 21.2s-16 9.2-29.8 3.5c-14.2-5.8-23.7-15.2-21.3-21.2 2.5-6.2 15.3-6.5 29.8-3.5z" fill="#5b2448"/><path d="m1356.1 249.7c2.8.4 5.6 0 8.2-1s5-2.5 6.9-4.6c.9-1 1.7-2.1 2.3-3.4 2-3.7 2.5-8.1 1.3-12.1v-.1c-.3-1.2.4-2.4 1.6-2.8.9-.3 1.9.1 2.5.9 2.2 3.4 3.1 7.4 2.5 11.4-.3 2-.8 3.9-1.7 5.8-.9 1.8-2 3.5-3.3 5-2.7 2.9-6.3 5-10.2 6-1.9.5-3.9.7-5.9.6s-4-.6-5.8-1.6c-1.1-.6-1.5-2-.9-3 .5-.8 1.4-1.3 2.3-1.1z" fill="#9b3c82"/><path d="m1370.7 184.1c-6-2.2-20.5-7.1-33.3-16-1.8-1.3-4.2-.8-5.5 1-3.2 4.7-7.1 13.1 2.4 18.1 11.7 6.1 32.1 5.1 37.1.3.8-.8.8-2.1 0-2.9-.2-.3-.4-.4-.7-.5z" fill="#5b2448"/><path d="m1709.5 203.7c-19 39-167.2-10.5-198-24-1.2-.5-1.8.8-2.6.4l43.4-84.5s.3.1.7.3c1.7.7 5.7 2.4 6 2.5.9.3 7.1 2.7 16.4 6.5 1.5.6 3.1 1.2 4.7 1.9 42.3 17.6 145.4 63.9 129.4 96.9z" fill="#f94f46"/><path d="m1580.1 106.8c-10 59.5-54.3 76.8-69.2 79.7-1.2-.5-2.2-1-3.1-1.5 29.6-21.8 43.1-79.7 45.1-89.2 1.7.7 5.7 2.4 6 2.5.9.3 7.1 2.7 16.4 6.5 1.6.7 3.1 1.3 4.8 2z" fill="#5b2448"/><path d="m1318.1 138.4c4.5 1.6 10.8 3.6 16.1 5 .1 0 .1 0 .2.1 8.7 2.3 19.1 4.7 30.5 6.9 1 .2 1.8.3 2.6.5h.1c37.3 7 85.2 12.1 114 7.8 9.6-1.4 16.7-3 23.7-4.2.9-.1 1.7-.3 2.5-.4 4.4-.7 8.3-1.5 11.8-2.1.5-.1 1-.2 1.5-.3l1-.2c.6-.1 1.2-.2 1.8-.4 1.3-.3 2.6-.5 3.8-.8.5-.1.9-.2 1.4-.3 4.6-1 8.2-1.8 11.3-2.5.4-.1.9-.2 1.3-.3s.8-.2 1.2-.3.8-.2 1.2-.3.8-.2 1.1-.3c.5-.1 1.1-.3 1.6-.4.3-.1.5-.1.8-.2 1-.3 2-.5 2.9-.7 25.3-67.5-28.5-149.6-115.8-144.8-1 .1-1.9.1-2.9.2-.1 0-.1 0-.2 0-15.1 1-29.9 4.5-43.8 10.5-31.1 13.7-52.9 40.8-62.3 73.2-.7 2.3-1.3 4.5-1.8 6.8-2.7 11.3-4.4 22.9-5.1 34.5-.5 4.4-.6 8.7-.5 13z" fill="#f94f46"/><path d="m1481.5 158.7s19.5-29.7 50.6-26c29.4 3.5 33.4 49-8 80.3-6.7 5.1-19 12.3-29.3 15.5z" fill="#f4ada2"/><path d="m1507.5 219.3c-1.1.3-1.8 1.3-1.8 2.4 0 1.4 1.1 2.5 2.5 2.5.2 0 .5 0 .7-.1 1-.3 20.6-6 37.7-27.3-.5-2.8-.9-5-1.1-6.8-16.8 23-37.7 29.2-38 29.3z" fill="#9b3c82"/><path d="m1496.7 194c-.2 0-.5 0-.7-.1-1.3-.4-2.1-1.8-1.7-3.1 4.9-17.4 14.8-26.5 22.3-31 4.7-3 9.9-4.9 15.4-5.8 1.4-.1 2.6.9 2.7 2.2.1 1.4-.8 2.6-2.2 2.7-1 .1-24.9 3.1-33.4 33.2-.3 1.2-1.2 1.9-2.4 1.9z" fill="#9b3c82"/><path d="m1318.1 138.4c4.5 1.6 10.8 3.6 16.1 5 .1 0 .1 0 .2.1 8.7 2.3 19.1 4.7 30.5 6.9 1 .2 1.8.3 2.6.5 3.7-10.5 3.5-29.5-4.5-41.2s-21.3-18.7-39.4-18.7c-2.7 11.3-4.4 22.9-5.1 34.5-.4 4.3-.5 8.6-.4 12.9z" fill="#5b2448"/><path d="m1461.6 1889.7h-918.6c-9.7 0-17.5-7.8-17.5-17.5s7.8-17.5 17.5-17.5h904.7l119.2-526.4c2.1-9.4 11.5-15.4 20.9-13.3s15.4 11.5 13.3 20.9v.1l-122.3 540c-1.9 8-9 13.7-17.2 13.7z" fill="#5b2448"/><path d="m1583.8 1350.2c-9.7 0-17.5-7.8-17.5-17.5 0-1.3.1-2.6.4-3.8l133.1-592.4c.8-3.7 2.9-7.1 5.8-9.6l219.1-184.1c4.8-4 11.3-5.2 17.2-3.1l159 57c9.1 3.3 13.8 13.3 10.6 22.4-3.3 9.1-13.3 13.8-22.4 10.6l-149.6-53.7-206.8 173.9-131.8 586.6c-1.8 8-8.9 13.7-17.1 13.7z" fill="#3fb1b5"/><path d="m2040.4 612.2 12.3 4.4c-.2-1.5-.3-3.1-.3-4.7 0-11 4.2-21.1 11.2-28.6l-12-4.3c-7 9.1-11.1 20.5-11.1 32.9-.1.1-.1.2-.1.3z" fill="#9b3c82"/><g fill="#3fb1b5"><path d="m1580 1350.2h-1068.6c-8.1 0-15.2-5.6-17-13.5l-119-501.5c-2.2-9.4 3.6-18.8 13-21.1 1.3-.3 2.7-.5 4-.5l1302.5-.1c9.7 0 17.5 7.8 17.5 17.5s-7.8 17.5-17.5 17.5l-1280.4.1 110.6 466.6h1054.9c9.7 0 17.5 7.8 17.5 17.5s-7.9 17.5-17.5 17.5z"/><path d="m1642.3 1084.7h-1187.4c-9.7 0-17.5-7.8-17.5-17.5s7.8-17.5 17.5-17.5h1187.4c9.7 0 17.5 7.8 17.5 17.5s-7.8 17.5-17.5 17.5z"/><path d="m1045 1350.2c-9.7 0-17.5-7.8-17.5-17.5v-496.8c0-9.7 7.8-17.5 17.5-17.5s17.5 7.8 17.5 17.5v496.8c0 9.7-7.9 17.5-17.5 17.5z"/><path d="m771 1349.2c-8.8 0-16.2-6.6-17.3-15.3l-64.1-500.7c-1.2-9.6 5.5-18.4 15.1-19.6s18.4 5.5 19.6 15.1l64.1 500.7c1.2 9.6-5.6 18.4-15.2 19.6-.7.2-1.4.2-2.2.2z"/><path d="m1322.1 1349.2c-9.7 0-17.5-7.8-17.5-17.5 0-.7 0-1.5.1-2.2l64.4-498.7c1.2-9.6 9.9-16.4 19.5-15.2s16.4 9.9 15.2 19.5v.2l-64.4 498.7c-1 8.7-8.5 15.2-17.3 15.2z"/><circle cx="1319" cy="1948.7" r="80"/></g><circle cx="2094.6" cy="611.9" fill="#ffcf2d" r="43.7"/><circle cx="707" cy="1948.7" fill="#3fb1b5" r="80"/><path d="m643.5 852.7c108 116 153 163.1 105 228s-234 19-208-428c0 0 35.8 127.9 103 200z" fill="#5b2448"/><path d="m629.5 836.7c-14.7 8.1-28.8 16.8-42.3 25.7-13.6 9-26.4 18.1-38.3 27.1-4.4 3.3-8.7 6.6-12.8 9.9-44.6 35-73.6 65.3-75.6 67.3l-.1.1c-31.7 10.7-56.8 13.5-76.6 11.7-24.3-2.3-40.6-11.7-51.6-22.7-11.3-11.5-18.9-26.1-21.8-42 1.5-3 3.6-6.7 6.3-11 16.3-25.8 53.4-73.2 96.7-122.5.7-.8 1.4-1.6 2.1-2.3 4.4-5 8.9-10.1 13.5-15.1 36.8-40.7 76.6-81.1 111.4-110z" fill="#f4ada2"/><path d="m629.5 836.7c-14.7 8.1-28.8 16.8-42.3 25.7-6.5-15.1-13.7-32.3-21.4-51.6-32.1-80.7-25.5-158-25.5-158z" fill="#9b3c82"/><path d="m536.1 899.3c-44.6 35-73.6 65.3-75.6 67.3l-.1.1c-31.7 10.7-56.8 13.5-76.6 11.7l-51.6-22.7c-11.3-11.5-18.9-26.1-21.8-42 1.5-3 3.6-6.7 6.3-11 16.3-25.8 53.4-73.2 96.7-122.5.7-.8 1.4-1.6 2.1-2.3z" fill="#66b0f0"/><path d="m506 924.2-116.4-116.2c-2.2 2.6-4.3 5.1-6.5 7.7l115.3 115.1c2.4-2.2 5-4.4 7.6-6.6z" fill="#fff"/><path d="m845.5 841.7c-18.6 61.8-58 195-97 239.1 0 0 44-60.1-38-145.1-89.8-93.1-146-177-170-283 0 0 251-226 385.1-153 29.3 15.9 60.7 39.2 93.9 69 0 0-133 137-174 273z" fill="#f94f46"/><path d="m770.5 511.5c92.6-34.7 142.9-28.8 224.5 36.2-24.3-19.9-47.5-36-69.4-48-39.4-21.4-88.8-17.1-139-.3-.6.2-1.2.4-1.9.6-120.2 41-244.2 152.6-244.2 152.6.4 2 .9 3.9 1.4 5.9 2.2-1.8 4.6-3.8 7.3-6 38-31.6 127.3-105.8 221.3-141z" fill="#fcb6b1"/><path d="m33.5 888.9c1.2 20.1 19.7 55.2 71.3 89.9l251.2 168.7c28.4-54.8 46.4-116.8 117.4-195.8-56-20-65 16-144.9-37.8-26.6-17.9-36.8-19.2-71.1-32.3-1.3-.5-2.7-.9-4-1.3-.4-.1-.7-.2-1.1-.4-22.6-7.6-45.9-13-69.5-16.1-91.2-11.5-143.8 21.4-149 24.8-.1.1-.2.2-.3.3z" fill="#fff"/><path d="m356.2 1150.1c-.5 0-1-.1-1.4-.4l-251.5-168.9c-51.3-34.5-71-70-72.4-91.8-.1-.9.4-1.7 1.1-2.2l.1-.1c.1-.1.2-.2.3-.2s.1-.1.2-.1c6.7-4.3 62.1-38.2 152.9-26.8 26.4 3.3 83.5 16.2 129.7 43.4 1.2.7 1.6 2.2.9 3.4s-2.2 1.6-3.4.9c-45.5-26.8-101.7-39.5-127.8-42.8-86.4-10.9-139.8 19.9-148.8 25.6 1.1 9.8 9.2 45.7 70.1 86.5l249 167.2c3.5-7.5 6.9-14.9 10.2-22 24.5-53.1 45.7-99 106.7-171.4.9-1.1 2.5-1.2 3.5-.3s1.2 2.5.3 3.5c-60.6 71.8-81.6 117.4-106 170.2-3.7 8-7.5 16.2-11.5 24.7-.4 1.1-1.3 1.6-2.2 1.6z" fill="#5b2448"/><path d="m401.7 1052.1c-.5 0-.9-.1-1.3-.4-.7-.4-16.7-10.7-26.4-40.9-2-6.3-3.5-11.7-4.8-16.4-4.9-17.7-7.3-26.6-27.7-46.6-1-1-1-2.5 0-3.5s2.5-1 3.5 0c21.4 20.9 24.1 30.8 29 48.8 1.3 4.7 2.7 10 4.7 16.2 9.1 28.2 24.2 38.1 24.3 38.2 1.2.7 1.5 2.3.8 3.4-.4.7-1.2 1.2-2.1 1.2z" fill="#5b2448"/><path d="m383 1092.7c-1.3 0-2.3-.9-2.5-2.2 0-.3-4.3-30.9-37.2-47.3-15.4-7.7-26.4-6.8-38.1-5.9-8.8.7-17.9 1.4-28.9-1.7-13.9-4-21.3-11-28.4-17.8-8.4-8-17-16.2-37.2-20.1-33-6.4-61.9-16.6-85.9-30.3-37-21-62.8-50.1-76.7-86.6-.5-1.3.1-2.7 1.4-3.2s2.7.1 3.2 1.4v.1c13.5 35.3 38.6 63.6 74.5 84 23.6 13.4 52 23.4 84.4 29.7 21.6 4.2 30.8 13 39.7 21.4 7 6.7 13.6 13 26.4 16.6 10.1 2.9 18.3 2.2 27.1 1.6 11.8-.9 24.1-1.9 40.7 6.4 35.4 17.6 39.8 49.8 39.9 51.1.2 1.4-.8 2.6-2.2 2.8 0 0-.1 0-.2 0z" fill="#5b2448"/><path d="m336.4 1108.4c-.7 0-1.3 0-2-.1-7.6-.5-16.1-3.6-23.7-8.7s-13.7-11.8-17.1-18.7c-3.5-7.3-3.6-14.2-.2-19.2 3.4-5 9.7-7.6 17.9-7.1 7.6.5 16.1 3.6 23.7 8.7s13.7 11.8 17.1 18.7c3.5 7.3 3.6 14.2.2 19.2-3.1 4.7-8.7 7.2-15.9 7.2zm-27.2-48.8c-5.4 0-9.6 1.7-11.7 4.9-2.4 3.5-2.2 8.6.6 14.2 2.9 6.1 8.4 12 15.3 16.7s14.5 7.5 21.3 7.9c6.3.4 11-1.3 13.4-4.9s2.2-8.6-.6-14.2c-2.9-6.1-8.4-12-15.3-16.7s-14.5-7.5-21.3-7.9c-.6.1-1.1 0-1.7 0z" fill="#5b2448"/><path d="m265.3 963.5c-4.1 0-7.5-3.4-7.5-7.5 0-.5 0-.9.1-1.3 0-.1 1.7-9.8-.5-24.2-2.9-19.1-10.7-37-23.4-53.1-2.6-3.2-2.2-7.9 1-10.6 3.2-2.6 7.9-2.2 10.6 1 .1.1.1.2.2.2 34.7 43.9 27.2 87.4 26.9 89.3-.7 3.6-3.8 6.2-7.4 6.2z" fill="#ffcf2d"/><path d="m226.9 954.7c-.3 0-.6 0-.9-.1-4.1-.5-7-4.2-6.5-8.4 0-.4 4.6-43-27.3-77.2-2.8-3-2.7-7.8.3-10.6s7.8-2.7 10.6.3c0 0 0 .1.1.1 36.8 39.4 31.4 87.2 31.2 89.2-.5 3.9-3.7 6.7-7.5 6.7z" fill="#ffcf2d"/><path d="m185.4 940.5c-.2 0-.5 0-.7 0-4.1-.4-7.1-4.1-6.7-8.2 0-.3 3.1-37-25.9-67.3-2.9-3-2.8-7.7.1-10.6 3-2.9 7.7-2.8 10.6.1l.1.1c33.9 35.5 30.2 77.4 30 79.2-.4 3.7-3.7 6.7-7.5 6.7z" fill="#ffcf2d"/><path d="m1707.5 685.7c30.1-7 114.2-29.5 158 16 25 26-17 115-160 60-88.3-33.9-269.8-2.4-269.8-2.4z" fill="#5b2448"/><path d="m1737.5 678.7c-4.5 18.1-9.5 35.5-14.9 52.4-.7 2-1.3 4-1.9 6-.1.3-.2.6-.3.9s-.2.6-.3 1c-72.1 216.8-213.5 329.8-314.5 318.8-106-11.6-226-204.1-308.3-314.2-.4-.5-.8-1.1-1.2-1.7-.8-1-1.6-2.1-2.3-3.1-5.9-7.8-11.6-15.2-17.1-22-9.8-12.1-18.6-22.3-26.7-30.9-4.8-5.1-9.4-9.7-13.7-13.8-.3-.3-.6-.6-.9-.9-38.6-36.3-59.5-36.1-91.7-67.5-17.3-16.9-11-31-11-31-6.4-8.2-14-23-6-32-19-24-3-38-3-38-17-25-3-45 4-44 16 36 111 72 140 60s10-47.8 10-47.8c39 1.2 40.4 52 55 90.8 4.3 11.5 11.1 25.2 20.7 36.6 10.4 12.4 22.9 24.5 35.2 35.8 2.3 2.1 4.6 4.1 6.8 6.2.1.1.1.1.2.2 14.8 13.2 29.3 24.6 40.3 32.9 3 2.3 5.8 4.3 8.2 6 5.3 3.8 9.1 6.4 10.6 7.3 43 27 162 125 162 125 7.7-17 14.1-34.5 19.2-52.4 10.8-10.6 25.4-19.8 42.2-27.8 93.6-44.8 259.4-52.8 259.4-52.8z" fill="#f4ada2"/><path d="m1737.5 678.7c-4.5 18.1-9.5 35.5-14.9 52.4-.7 2-1.3 4-1.9 6-18.3 2-36.4 5.2-54.2 9.6-60.9 15.1-137.2 28.7-230.7 12.7l42.2-27.8c93.7-44.9 259.5-52.9 259.5-52.9z" fill="#9b3c82"/><path d="m955 531.5c.3.1.7.2 1 .2 1 0 1.9-.6 2.3-1.5.6-1.3 0-2.7-1.3-3.3-.2-.1-19.8-8.8-33.3-24.2-.1 0-1.6 1.3-3.1 3.9 14.1 15.8 33.5 24.5 34.4 24.9z" fill="#9b3c82"/><path d="m956.2 566.6c.3.1.5.1.8.1 1.1 0 2-.7 2.4-1.7.4-1.3-.3-2.7-1.6-3.2-.2-.1-17.8-6.1-31.1-21.1-1.2 1.4-2.1 2.9-2.6 4.5 13.8 15.1 31.3 21.1 32.1 21.4z" fill="#9b3c82"/><path d="m957 595.5c.3.1.6.2.9.2 1 0 2-.6 2.3-1.6.5-1.3-.1-2.7-1.4-3.2-7-2.7-20.4-10.3-26.1-18.2s-1.1 2.4-1.1 6.5c7.5 7.7 17.7 13.3 25.4 16.3z" fill="#9b3c82"/><path d="m1195.3 640.4c-22.4 11.6-42.9 26.5-60.8 44.2-3.3 3.3-6.7 6.8-9.9 10.4-12 13.3-22.5 27.9-31 43.7-.4.7-.7 1.3-1.1 2-1.9-2.7-3.9-5.3-6-8-10.3-13.3-21.3-26-32.9-38.1-1.9-2-3.8-4-5.7-5.9.6-.9 1.2-1.8 1.9-2.8 2-2.8 4.5-6.2 7.4-9.9 8.2-10.2 17-19.9 26.4-28.9 3-2.8 6.1-5.7 9.4-8.6 18.2-16.1 38.4-29.6 60.2-40.2 10.4 12.4 22.9 24.5 35.2 35.8 2.3 2.1 4.6 4.1 6.9 6.3-.1-.1 0 0 0 0z" fill="#5b2448"/><path d="m1096.4 634.7c-1.5 1.3-2.9 2.5-4.3 3.8 11.4 3.6 22.4 11.2 30.7 22.4 5.6 7.5 9.2 15.7 11.1 23.9 1.4-1.4 2.7-2.7 4.1-4-2.2-7.9-5.9-15.7-11.2-22.8-8.3-11.2-19.1-19.1-30.4-23.3z" fill="#fff"/><ellipse cx="1085.8" cy="688.8" fill="#5b2448" rx="46.8" ry="56.1" transform="matrix(.8033 -.5956 .5956 .8033 -196.6498 782.1876)"/><ellipse cx="1080.2" cy="693.8" fill="#fff" rx="40.4" ry="54.4" transform="matrix(.8033 -.5956 .5956 .8033 -200.7191 779.8505)"/><path d="m1077.3 701.2c-.7 0-1.4-.3-1.9-.8l-22.6-25.6c-.9-1-.8-2.6.2-3.5s2.6-.8 3.5.2l20.8 23.5 14.1-16.2c.9-1 2.5-1.1 3.5-.2s1.1 2.5.2 3.5l-16 18.3c-.4.4-1.1.8-1.8.8z" fill="#5b2448"/><path d="m1661.5 391.7c-52.9-81.2-121-90-160 33-31.3 98.8-43.9 247.3-65.8 334.6 0 0 96.5 4.1 208.8-47.6 113-52 193-36 221-10 0 0-66-65-111-147-56.9-103.5-70.9-129-93-163z" fill="#ffcf2d"/></svg></g><!--ITEM: Illustration component 2--><g transform="translate(182.0 178.0) rotate(0.0 17.5 4.5)  scale(0.1893027708517002 0.1875)"><svg width="184.889" height="48.0" viewBox="0.0 0.0 184.889 48.0"><ellipse cx="92.444" cy="24" fill="#5b2448" rx="92.444" ry="24"/></svg></g><!--ITEM: Illustration component 3--><g transform="translate(30.0 43.0) rotate(-16.114851079752004 121.5 116.5) translate(114.0 33.0) scale(0.11308111126622923 0.11485187558535022)"><svg width="318.3555555555556" height="200.2579399141631" viewBox="1008.1259259259259 287.3266094420601 318.3555555555556 200.2579399141631"><path d="m1180.5 760.7s15.6-117.7 18.6-173.2c2.3-43.4-7.4-86.8-29.3-124.4-2.6-4.5-5.7-8.7-9.2-12.4 0 0-46-3-42-43-26 15-57 15-33-11 59.5-64.5 99.8-77.5 126-70 35 10 71.5 54.4 84 87 53 138 64 411 57 548l-120-66z" fill="#f4ada2"/><path d="m1300.4 713.1c-.8-.5-77.6-52.5-104.4-78.5-.2 2.2-.3 4.3-.5 6.4 29.2 26.9 98.9 74.1 102.1 76.2z" fill="#9b3c82"/><path d="m1172.8 449c.6-1.7.5-3.4-.1-5 .7 0 1.4.1 2.1.1 9.3 0 11.8-4.1 12.4-6.1.4-1.3.4-2.8 0-4.1 6.7 1.5 14.2 2.6 22.6 2.9 1.6 2.6 3.2 5.4 4.8 8.5 14.7 28.3 30.7 44.9 55.1 57.1.3.2.7.3 1.1.3.9 0 1.8-.5 2.2-1.4.6-1.2.1-2.7-1.1-3.4-23.4-11.7-38.7-27.6-52.9-54.9-12-23.1-23.1-30.4-41.5-42.4-1.7-1.1-3.5-2.3-5.4-3.5-5.8-3.8-8.8-7.4-8.1-9.5 1.2-3.7 13.4-7.1 33.6-5.9 33.6 1.9 56.2 21.1 56.5 21.4 1 .9 2.6.8 3.5-.2s.8-2.6-.2-3.5c-1-.8-24.1-20.6-59.5-22.6-3.9-.2-12.1-.5-20 .4 10.3-6.6 20.3-13.2 28.3-18.9 1.1-.8 1.4-2.4.6-3.5s-2.4-1.4-3.5-.6c-26 18.5-71.7 45.8-85.1 53.7-.1 2.1.1 5.2.3 7.5 4.1 6.7 16.3 22.3 46.7 27.8.1.1.1.1.2.2 1.2.7 3.1 2.3 2.4 4.1-.7 1.9-3.3 3.5-7.2 3.2 1.4 1.5 2.8 3.2 4.1 4.8 4.2-.9 7-3.2 8.1-6.5zm-13.7-60c.4 3.8 3.9 7.9 10.4 12.3 1.9 1.2 3.7 2.4 5.4 3.5 13.8 9 22.9 15 31.4 26.8-9.9-.7-18.3-2.4-25.4-4.7-.2-.1-.4-.1-.6-.2-10.6-3.5-18.2-8.2-23.4-12.4-8.7-7-12.6-13.9-13.5-15.7 5-2.9 10.3-6.2 15.7-9.6zm-37.1 22.5c3.9-2.3 9.9-5.9 17.2-10.3 2.3 4.5 12.8 21.7 40.2 30.5 2.5 1.5 3.6 3.5 3.2 4.8-.5 1.5-3.8 3.6-13.2 2.2-32.7-4.9-44.7-22.2-47.4-27.2z" fill="#9b3c82"/><path d="m1586 205.5c22.5 43.1 61.5 83.1 157.5 107.1 66.8 16.7 114.4 56.7 133 114 20.7 63.8 4.3 145-63.3 210.4-125.7 121.6-49.8 191.7-44.7 309.6 5 115-91 131-123 120 0 0-23 125-169 149s66-1041 66-1041 37.3 19.1 43.5 30.9z" fill="#5b2448"/><path d="m440.2 606.5c28.1 104.1 14.4 149.6-33.7 178.9s-209-32.9 41.5-387.8c0 0-42.1 81.8-7.8 208.9z" fill="#5b2448"/><path d="m448 397.6-12.3 200.4c-14-6.8-28.3-12.7-43.1-17.6-20.7-6.9-41.9-12.6-63.3-17-27.5-5.8-55.2-9.9-83.2-12.2-86.1-53.3-42.8-137.7-42.8-137.7s63.7-8.7 142.9-13.2c32.4-1.9 67.5-3.1 101.8-2.7z" fill="#f4ada2"/><path d="m448 397.6-12.3 200.4c-14-6.8-28.3-12.7-43.1-17.6 0-7.2-.1-14.5-.2-21.9-1.1-103 55.6-160.9 55.6-160.9z" fill="#9b3c82"/><path d="m346.1 400.2-16.8 163.1c-27.5-5.8-55.2-9.9-83.2-12.2-86.1-53.3-42.9-137.7-42.9-137.7s63.8-8.6 142.9-13.2z" fill="#66b0f0"/><path d="m295.8 403.8-14 151.4c3.3.5 6.6.9 9.9 1.4l14.2-153.6c-3.4.2-6.8.5-10.1.8z" fill="#fff"/><path d="m942.5 509.7c-93-59-243-109-494.4-112 0 0-47.2 84.8-8.1 215.6s-33.5 172.1-33.5 172.1 397-213.7 536-275.7z" fill="#f94f46"/><path d="m99.3 169.9c-17.7 9.7-41.6 41.3-51 102.8l-45.8 299.2c62.4 6.5 170.7-25.5 243.6-20.7-2.6-28.3-39.6-35.4-43.8-103.6-2-32 1.7-41.4-1.1-78.1-.1-1.4-.3-2.8-.5-4.2 0-.4-.1-.8-.1-1.1-2.7-23.7-7.8-47-15-69.7-28.4-87.4-80.5-121-85.8-124.2-.1-.1-.2-.1-.3-.2-.2-.1-.2-.2-.2-.2z" fill="#fff"/><path d="m3.1 574.6h-.6c-1.4 0-2.5-1.1-2.5-2.5 0-.1 0-.3 0-.4l45.8-299.4c9.3-61.1 33.1-94.1 52.2-104.6.8-.4 1.7-.4 2.5 0l.1.1c.1.1.2.1.4.2.1 0 .1.1.2.1 6.8 4.2 61 39.9 89.3 126.9.9 2.8 21.9 68.3 17.6 122.2-.1 1.4-1.3 2.4-2.7 2.3s-2.4-1.3-2.3-2.7c4.2-52.9-16.5-117.5-17.4-120.2-26.9-82.9-77.6-118.1-86.5-123.8-17.9 10.6-39.6 42.3-48.5 100.2l-45.3 296.6c30.1-.2 61.8-4.7 95.3-9.3 45.7-6.4 92.9-13 146-11 1.4.1 2.5 1.2 2.4 2.6s-1.2 2.5-2.6 2.4c-52.6-2-99.6 4.6-145.1 11-34.5 4.7-67.2 9.3-98.3 9.3z" fill="#5b2448"/><path d="m116.8 559c-.1 0-.2 0-.3 0-1.4-.2-2.3-1.4-2.2-2.8.1-.8 2.6-19.7 25.7-41.3 4.8-4.5 9.1-8.1 12.8-11.3 14-11.9 21-17.9 30.4-44.9.5-1.3 1.9-2 3.2-1.5s2 1.9 1.5 3.2c-9.8 28.2-17.7 34.9-31.8 47-3.7 3.2-7.9 6.7-12.6 11.2-11.4 10.6-17.3 20.4-20.3 26.8-1.8 3.6-3.1 7.5-3.8 11.4-.3 1.2-1.3 2.2-2.6 2.2z" fill="#5b2448"/><path d="m71.4 568.5c-1.4 0-2.5-1.1-2.5-2.5 0-.8.4-1.6 1-2 4-3.3 7.5-7.1 10.3-11.5 4.8-7.1 10.6-19.3 11.2-36.5s-4.9-26.9-10.8-37.1c-4.4-7.6-9-15.5-10.8-26.7-2.3-14.3.9-24 4-33.3 3.6-11 7.4-22.3 2.4-42.2-8.2-32.6-11.3-63.1-9.2-90.7 3.3-42.4 18.6-78.2 45.7-106.3 1-1 2.6-.9 3.5 0s.9 2.4.1 3.4c-26.2 27.2-41.1 62-44.3 103.2-2.1 27.1 1 57 9 89.1 5.4 21.4 1.4 33.4-2.5 45-3 9.2-5.9 17.8-3.8 30.9 1.7 10.3 5.8 17.5 10.2 25 6 10.3 12.2 21 11.5 39.8-.7 18.5-7 31.6-12.2 39.3-5.7 8.4-11.2 12.4-11.4 12.6-.4.3-.9.5-1.4.5z" fill="#5b2448"/><path d="m44.9 549c-.7 0-1.4-.1-2.2-.2-6-.9-11-5.6-14-13.2-2.8-7.1-3.6-16.1-2.2-25.2 3-19.7 14.8-33.6 26.9-31.8s19.2 18.7 16.2 38.4c-2.8 18.6-13.4 32-24.7 32zm6.5-65.5c-8.6 0-17.5 12.2-19.9 27.7-1.3 8.3-.6 16.3 1.9 22.6 2.3 5.8 5.9 9.4 10.1 10.1 9 1.4 18.7-11.3 21.2-27.6s-3-31.3-12-32.7c-.4 0-.9-.1-1.3-.1z" fill="#5b2448"/><path d="m134.8 403.6c-4.1 0-7.5-3.4-7.5-7.5 0-3.4 2.3-6.4 5.6-7.3.4-.1 38-10.8 59.8-54.5 1.8-3.7 6.3-5.3 10-3.4 3.7 1.8 5.3 6.3 3.4 10 0 0 0 .1-.1.1-24.9 50-67.5 61.8-69.3 62.3-.6.2-1.2.3-1.9.3z" fill="#ffcf2d"/><path d="m126.4 365.1c-4.1 0-7.5-3.4-7.5-7.5 0-3.2 2.1-6.1 5.2-7.1.4-.1 40.9-14.1 58.2-57.5 1.5-3.8 5.9-5.7 9.7-4.2s5.7 5.9 4.2 9.7c-20 50.1-65.5 65.6-67.5 66.2-.7.3-1.5.4-2.3.4z" fill="#ffcf2d"/><path d="m121.7 321.5c-4.1 0-7.5-3.4-7.5-7.5 0-3.2 2-6 5-7.1.3-.1 34.8-13 49.9-52.1 1.5-3.9 5.8-5.8 9.7-4.4s5.8 5.8 4.4 9.7v.1c-17.7 45.8-57.2 60.3-58.9 60.9-.9.3-1.8.4-2.6.4z" fill="#ffcf2d"/><path d="m1019.5 568.7c59 60 158.9 170.6 239.6 310.1l46.4-56.1 305 108c24 250-158 391-344 384s-388-190-421-482c0 0 32-122 174-264z" fill="#f94f46"/><path d="m929.6 691.5c-1.2-1.2-3.1-1.1-4.2 0-1.8 1.9-43.4 45.1-79 148.1.6 4.5 1.2 9 1.8 13.5 36-109.9 81.1-156.9 81.5-157.4 1.1-1.1 1-3-.1-4.2z" fill="#fcb6b1"/><path d="m1461.5 377.7s-34-29-63 22c-27.2 47.9-26 194-64.5 262.5-38.2 68-118.5 150.5-118.5 150.5s54 134 192 166 201-80 277-18c22-132 70.2-407.4-78-618 0-0-59.9-48.2-145 35z" fill="#ffcf2d"/><path d="m1449 653.1c-6.8 44.2-12.6 82.4-18.4 105.4l4.8 1.2c5.9-23.3 11.8-61.6 18.5-105.9 15.8-103.5 37.5-245.2 75.9-287l-3.7-3.4c-39.4 43-60.3 179.8-77.1 289.7z" fill="#fff"/><path d="m1452.6 415.2c-.6 1.5-55 131.5-103 208.8-2.2 7-4.5 13.7-7.1 20.1 50.6-73.7 114-225.3 114.7-226.9z" fill="#fff"/><path d="m1606.3 343c-80.8-32.4-72.8 73.6-156.3 78.1 15-39.1 16-74.1 16-93.2 0-4-.3-8.1-1-12-2.8-17.4-11.1-30.8-16-34.1-26 20-58.3 33.4-72.1 30.1-34-8.1-50.6-73.9-55.6-94-8.6-2-21.3-11.9-13-19.5 3.8-3.6 7.6-7.6 9.1-12.7 1.6-5.2 1.5-11.7 1.5-17 0-4.1-.1-8.2-.3-12.3-.2-5.7-.5-11.4-.5-17.1v-.1c0-4.2.1-8.5.4-12.7.9-14 3.2-27.8 6.9-41.3 9.4-32.4 31.2-59.5 62.3-73.3 13.9-6 28.7-9.5 43.8-10.5h.2c1-.1 1.9-.1 2.9-.2 87.3-4.8 141.2 77.4 115.8 144.8l-4.9 43.7c2 17 19.7 90.2 60.8 153.3z" fill="#f4ada2"/><path d="m1318.6 155.5c86.6 18.5 162.9 3.2 162.9 3.2l-114.4-14.3-45.8-5.7-3.2-.4v.1c0 5.7.3 11.4.5 17.1z" fill="#9b3c82"/><circle cx="1426.6" cy="208.5" fill="#e57281" opacity=".52" r="27.1"/><path d="m1465.1 316c-2.8-17.4-11.1-30.8-16-34.1 9-8 12-11 22-21 5.1-5.1 10.4-12.3 17-9 8 4 13 36-23 64.1z" fill="#5b2448"/><path d="m1376.6 149.5c14.6 3 23.6 14.4 21.3 21.2s-16 9.2-29.8 3.5c-14.2-5.8-23.7-15.2-21.3-21.2 2.5-6.2 15.3-6.5 29.8-3.5z" fill="#5b2448"/><path d="m1356.1 249.7c2.8.4 5.6 0 8.2-1s5-2.5 6.9-4.6c.9-1 1.7-2.1 2.3-3.4 2-3.7 2.5-8.1 1.3-12.1v-.1c-.3-1.2.4-2.4 1.6-2.8.9-.3 1.9.1 2.5.9 2.2 3.4 3.1 7.4 2.5 11.4-.3 2-.8 3.9-1.7 5.8-.9 1.8-2 3.5-3.3 5-2.7 2.9-6.3 5-10.2 6-1.9.5-3.9.7-5.9.6s-4-.6-5.8-1.6c-1.1-.6-1.5-2-.9-3 .5-.8 1.4-1.3 2.3-1.1z" fill="#9b3c82"/><path d="m1370.7 184.1c-6-2.2-20.5-7.1-33.3-16-1.8-1.3-4.2-.8-5.5 1-3.2 4.7-7.1 13.1 2.4 18.1 11.7 6.1 32.1 5.1 37.1.3.8-.8.8-2.1 0-2.9-.2-.3-.4-.4-.7-.5z" fill="#5b2448"/><path d="m1709.5 203.7c-19 39-167.2-10.5-198-24-1.2-.5-1.8.8-2.6.4l43.4-84.5s.3.1.7.3c1.7.7 5.7 2.4 6 2.5.9.3 7.1 2.7 16.4 6.5 1.5.6 3.1 1.2 4.7 1.9 42.3 17.6 145.4 63.9 129.4 96.9z" fill="#f94f46"/><path d="m1580.1 106.8c-10 59.5-54.3 76.8-69.2 79.7-1.2-.5-2.2-1-3.1-1.5 29.6-21.8 43.1-79.7 45.1-89.2 1.7.7 5.7 2.4 6 2.5.9.3 7.1 2.7 16.4 6.5 1.6.7 3.1 1.3 4.8 2z" fill="#5b2448"/><path d="m1318.1 138.4c4.5 1.6 10.8 3.6 16.1 5 .1 0 .1 0 .2.1 8.7 2.3 19.1 4.7 30.5 6.9 1 .2 1.8.3 2.6.5h.1c37.3 7 85.2 12.1 114 7.8 9.6-1.4 16.7-3 23.7-4.2.9-.1 1.7-.3 2.5-.4 4.4-.7 8.3-1.5 11.8-2.1.5-.1 1-.2 1.5-.3l1-.2c.6-.1 1.2-.2 1.8-.4 1.3-.3 2.6-.5 3.8-.8.5-.1.9-.2 1.4-.3 4.6-1 8.2-1.8 11.3-2.5.4-.1.9-.2 1.3-.3s.8-.2 1.2-.3.8-.2 1.2-.3.8-.2 1.1-.3c.5-.1 1.1-.3 1.6-.4.3-.1.5-.1.8-.2 1-.3 2-.5 2.9-.7 25.3-67.5-28.5-149.6-115.8-144.8-1 .1-1.9.1-2.9.2-.1 0-.1 0-.2 0-15.1 1-29.9 4.5-43.8 10.5-31.1 13.7-52.9 40.8-62.3 73.2-.7 2.3-1.3 4.5-1.8 6.8-2.7 11.3-4.4 22.9-5.1 34.5-.5 4.4-.6 8.7-.5 13z" fill="#f94f46"/><path d="m1481.5 158.7s19.5-29.7 50.6-26c29.4 3.5 33.4 49-8 80.3-6.7 5.1-19 12.3-29.3 15.5z" fill="#f4ada2"/><path d="m1507.5 219.3c-1.1.3-1.8 1.3-1.8 2.4 0 1.4 1.1 2.5 2.5 2.5.2 0 .5 0 .7-.1 1-.3 20.6-6 37.7-27.3-.5-2.8-.9-5-1.1-6.8-16.8 23-37.7 29.2-38 29.3z" fill="#9b3c82"/><path d="m1496.7 194c-.2 0-.5 0-.7-.1-1.3-.4-2.1-1.8-1.7-3.1 4.9-17.4 14.8-26.5 22.3-31 4.7-3 9.9-4.9 15.4-5.8 1.4-.1 2.6.9 2.7 2.2.1 1.4-.8 2.6-2.2 2.7-1 .1-24.9 3.1-33.4 33.2-.3 1.2-1.2 1.9-2.4 1.9z" fill="#9b3c82"/><path d="m1318.1 138.4c4.5 1.6 10.8 3.6 16.1 5 .1 0 .1 0 .2.1 8.7 2.3 19.1 4.7 30.5 6.9 1 .2 1.8.3 2.6.5 3.7-10.5 3.5-29.5-4.5-41.2s-21.3-18.7-39.4-18.7c-2.7 11.3-4.4 22.9-5.1 34.5-.4 4.3-.5 8.6-.4 12.9z" fill="#5b2448"/><path d="m1461.6 1889.7h-918.6c-9.7 0-17.5-7.8-17.5-17.5s7.8-17.5 17.5-17.5h904.7l119.2-526.4c2.1-9.4 11.5-15.4 20.9-13.3s15.4 11.5 13.3 20.9v.1l-122.3 540c-1.9 8-9 13.7-17.2 13.7z" fill="#5b2448"/><path d="m1583.8 1350.2c-9.7 0-17.5-7.8-17.5-17.5 0-1.3.1-2.6.4-3.8l133.1-592.4c.8-3.7 2.9-7.1 5.8-9.6l219.1-184.1c4.8-4 11.3-5.2 17.2-3.1l159 57c9.1 3.3 13.8 13.3 10.6 22.4-3.3 9.1-13.3 13.8-22.4 10.6l-149.6-53.7-206.8 173.9-131.8 586.6c-1.8 8-8.9 13.7-17.1 13.7z" fill="#3fb1b5"/><path d="m2040.4 612.2 12.3 4.4c-.2-1.5-.3-3.1-.3-4.7 0-11 4.2-21.1 11.2-28.6l-12-4.3c-7 9.1-11.1 20.5-11.1 32.9-.1.1-.1.2-.1.3z" fill="#9b3c82"/><g fill="#3fb1b5"><path d="m1580 1350.2h-1068.6c-8.1 0-15.2-5.6-17-13.5l-119-501.5c-2.2-9.4 3.6-18.8 13-21.1 1.3-.3 2.7-.5 4-.5l1302.5-.1c9.7 0 17.5 7.8 17.5 17.5s-7.8 17.5-17.5 17.5l-1280.4.1 110.6 466.6h1054.9c9.7 0 17.5 7.8 17.5 17.5s-7.9 17.5-17.5 17.5z"/><path d="m1642.3 1084.7h-1187.4c-9.7 0-17.5-7.8-17.5-17.5s7.8-17.5 17.5-17.5h1187.4c9.7 0 17.5 7.8 17.5 17.5s-7.8 17.5-17.5 17.5z"/><path d="m1045 1350.2c-9.7 0-17.5-7.8-17.5-17.5v-496.8c0-9.7 7.8-17.5 17.5-17.5s17.5 7.8 17.5 17.5v496.8c0 9.7-7.9 17.5-17.5 17.5z"/><path d="m771 1349.2c-8.8 0-16.2-6.6-17.3-15.3l-64.1-500.7c-1.2-9.6 5.5-18.4 15.1-19.6s18.4 5.5 19.6 15.1l64.1 500.7c1.2 9.6-5.6 18.4-15.2 19.6-.7.2-1.4.2-2.2.2z"/><path d="m1322.1 1349.2c-9.7 0-17.5-7.8-17.5-17.5 0-.7 0-1.5.1-2.2l64.4-498.7c1.2-9.6 9.9-16.4 19.5-15.2s16.4 9.9 15.2 19.5v.2l-64.4 498.7c-1 8.7-8.5 15.2-17.3 15.2z"/><circle cx="1319" cy="1948.7" r="80"/></g><circle cx="2094.6" cy="611.9" fill="#ffcf2d" r="43.7"/><circle cx="707" cy="1948.7" fill="#3fb1b5" r="80"/><path d="m643.5 852.7c108 116 153 163.1 105 228s-234 19-208-428c0 0 35.8 127.9 103 200z" fill="#5b2448"/><path d="m629.5 836.7c-14.7 8.1-28.8 16.8-42.3 25.7-13.6 9-26.4 18.1-38.3 27.1-4.4 3.3-8.7 6.6-12.8 9.9-44.6 35-73.6 65.3-75.6 67.3l-.1.1c-31.7 10.7-56.8 13.5-76.6 11.7-24.3-2.3-40.6-11.7-51.6-22.7-11.3-11.5-18.9-26.1-21.8-42 1.5-3 3.6-6.7 6.3-11 16.3-25.8 53.4-73.2 96.7-122.5.7-.8 1.4-1.6 2.1-2.3 4.4-5 8.9-10.1 13.5-15.1 36.8-40.7 76.6-81.1 111.4-110z" fill="#f4ada2"/><path d="m629.5 836.7c-14.7 8.1-28.8 16.8-42.3 25.7-6.5-15.1-13.7-32.3-21.4-51.6-32.1-80.7-25.5-158-25.5-158z" fill="#9b3c82"/><path d="m536.1 899.3c-44.6 35-73.6 65.3-75.6 67.3l-.1.1c-31.7 10.7-56.8 13.5-76.6 11.7l-51.6-22.7c-11.3-11.5-18.9-26.1-21.8-42 1.5-3 3.6-6.7 6.3-11 16.3-25.8 53.4-73.2 96.7-122.5.7-.8 1.4-1.6 2.1-2.3z" fill="#66b0f0"/><path d="m506 924.2-116.4-116.2c-2.2 2.6-4.3 5.1-6.5 7.7l115.3 115.1c2.4-2.2 5-4.4 7.6-6.6z" fill="#fff"/><path d="m845.5 841.7c-18.6 61.8-58 195-97 239.1 0 0 44-60.1-38-145.1-89.8-93.1-146-177-170-283 0 0 251-226 385.1-153 29.3 15.9 60.7 39.2 93.9 69 0 0-133 137-174 273z" fill="#f94f46"/><path d="m770.5 511.5c92.6-34.7 142.9-28.8 224.5 36.2-24.3-19.9-47.5-36-69.4-48-39.4-21.4-88.8-17.1-139-.3-.6.2-1.2.4-1.9.6-120.2 41-244.2 152.6-244.2 152.6.4 2 .9 3.9 1.4 5.9 2.2-1.8 4.6-3.8 7.3-6 38-31.6 127.3-105.8 221.3-141z" fill="#fcb6b1"/><path d="m33.5 888.9c1.2 20.1 19.7 55.2 71.3 89.9l251.2 168.7c28.4-54.8 46.4-116.8 117.4-195.8-56-20-65 16-144.9-37.8-26.6-17.9-36.8-19.2-71.1-32.3-1.3-.5-2.7-.9-4-1.3-.4-.1-.7-.2-1.1-.4-22.6-7.6-45.9-13-69.5-16.1-91.2-11.5-143.8 21.4-149 24.8-.1.1-.2.2-.3.3z" fill="#fff"/><path d="m356.2 1150.1c-.5 0-1-.1-1.4-.4l-251.5-168.9c-51.3-34.5-71-70-72.4-91.8-.1-.9.4-1.7 1.1-2.2l.1-.1c.1-.1.2-.2.3-.2s.1-.1.2-.1c6.7-4.3 62.1-38.2 152.9-26.8 26.4 3.3 83.5 16.2 129.7 43.4 1.2.7 1.6 2.2.9 3.4s-2.2 1.6-3.4.9c-45.5-26.8-101.7-39.5-127.8-42.8-86.4-10.9-139.8 19.9-148.8 25.6 1.1 9.8 9.2 45.7 70.1 86.5l249 167.2c3.5-7.5 6.9-14.9 10.2-22 24.5-53.1 45.7-99 106.7-171.4.9-1.1 2.5-1.2 3.5-.3s1.2 2.5.3 3.5c-60.6 71.8-81.6 117.4-106 170.2-3.7 8-7.5 16.2-11.5 24.7-.4 1.1-1.3 1.6-2.2 1.6z" fill="#5b2448"/><path d="m401.7 1052.1c-.5 0-.9-.1-1.3-.4-.7-.4-16.7-10.7-26.4-40.9-2-6.3-3.5-11.7-4.8-16.4-4.9-17.7-7.3-26.6-27.7-46.6-1-1-1-2.5 0-3.5s2.5-1 3.5 0c21.4 20.9 24.1 30.8 29 48.8 1.3 4.7 2.7 10 4.7 16.2 9.1 28.2 24.2 38.1 24.3 38.2 1.2.7 1.5 2.3.8 3.4-.4.7-1.2 1.2-2.1 1.2z" fill="#5b2448"/><path d="m383 1092.7c-1.3 0-2.3-.9-2.5-2.2 0-.3-4.3-30.9-37.2-47.3-15.4-7.7-26.4-6.8-38.1-5.9-8.8.7-17.9 1.4-28.9-1.7-13.9-4-21.3-11-28.4-17.8-8.4-8-17-16.2-37.2-20.1-33-6.4-61.9-16.6-85.9-30.3-37-21-62.8-50.1-76.7-86.6-.5-1.3.1-2.7 1.4-3.2s2.7.1 3.2 1.4v.1c13.5 35.3 38.6 63.6 74.5 84 23.6 13.4 52 23.4 84.4 29.7 21.6 4.2 30.8 13 39.7 21.4 7 6.7 13.6 13 26.4 16.6 10.1 2.9 18.3 2.2 27.1 1.6 11.8-.9 24.1-1.9 40.7 6.4 35.4 17.6 39.8 49.8 39.9 51.1.2 1.4-.8 2.6-2.2 2.8 0 0-.1 0-.2 0z" fill="#5b2448"/><path d="m336.4 1108.4c-.7 0-1.3 0-2-.1-7.6-.5-16.1-3.6-23.7-8.7s-13.7-11.8-17.1-18.7c-3.5-7.3-3.6-14.2-.2-19.2 3.4-5 9.7-7.6 17.9-7.1 7.6.5 16.1 3.6 23.7 8.7s13.7 11.8 17.1 18.7c3.5 7.3 3.6 14.2.2 19.2-3.1 4.7-8.7 7.2-15.9 7.2zm-27.2-48.8c-5.4 0-9.6 1.7-11.7 4.9-2.4 3.5-2.2 8.6.6 14.2 2.9 6.1 8.4 12 15.3 16.7s14.5 7.5 21.3 7.9c6.3.4 11-1.3 13.4-4.9s2.2-8.6-.6-14.2c-2.9-6.1-8.4-12-15.3-16.7s-14.5-7.5-21.3-7.9c-.6.1-1.1 0-1.7 0z" fill="#5b2448"/><path d="m265.3 963.5c-4.1 0-7.5-3.4-7.5-7.5 0-.5 0-.9.1-1.3 0-.1 1.7-9.8-.5-24.2-2.9-19.1-10.7-37-23.4-53.1-2.6-3.2-2.2-7.9 1-10.6 3.2-2.6 7.9-2.2 10.6 1 .1.1.1.2.2.2 34.7 43.9 27.2 87.4 26.9 89.3-.7 3.6-3.8 6.2-7.4 6.2z" fill="#ffcf2d"/><path d="m226.9 954.7c-.3 0-.6 0-.9-.1-4.1-.5-7-4.2-6.5-8.4 0-.4 4.6-43-27.3-77.2-2.8-3-2.7-7.8.3-10.6s7.8-2.7 10.6.3c0 0 0 .1.1.1 36.8 39.4 31.4 87.2 31.2 89.2-.5 3.9-3.7 6.7-7.5 6.7z" fill="#ffcf2d"/><path d="m185.4 940.5c-.2 0-.5 0-.7 0-4.1-.4-7.1-4.1-6.7-8.2 0-.3 3.1-37-25.9-67.3-2.9-3-2.8-7.7.1-10.6 3-2.9 7.7-2.8 10.6.1l.1.1c33.9 35.5 30.2 77.4 30 79.2-.4 3.7-3.7 6.7-7.5 6.7z" fill="#ffcf2d"/><path d="m1707.5 685.7c30.1-7 114.2-29.5 158 16 25 26-17 115-160 60-88.3-33.9-269.8-2.4-269.8-2.4z" fill="#5b2448"/><path d="m1737.5 678.7c-4.5 18.1-9.5 35.5-14.9 52.4-.7 2-1.3 4-1.9 6-.1.3-.2.6-.3.9s-.2.6-.3 1c-72.1 216.8-213.5 329.8-314.5 318.8-106-11.6-226-204.1-308.3-314.2-.4-.5-.8-1.1-1.2-1.7-.8-1-1.6-2.1-2.3-3.1-5.9-7.8-11.6-15.2-17.1-22-9.8-12.1-18.6-22.3-26.7-30.9-4.8-5.1-9.4-9.7-13.7-13.8-.3-.3-.6-.6-.9-.9-38.6-36.3-59.5-36.1-91.7-67.5-17.3-16.9-11-31-11-31-6.4-8.2-14-23-6-32-19-24-3-38-3-38-17-25-3-45 4-44 16 36 111 72 140 60s10-47.8 10-47.8c39 1.2 40.4 52 55 90.8 4.3 11.5 11.1 25.2 20.7 36.6 10.4 12.4 22.9 24.5 35.2 35.8 2.3 2.1 4.6 4.1 6.8 6.2.1.1.1.1.2.2 14.8 13.2 29.3 24.6 40.3 32.9 3 2.3 5.8 4.3 8.2 6 5.3 3.8 9.1 6.4 10.6 7.3 43 27 162 125 162 125 7.7-17 14.1-34.5 19.2-52.4 10.8-10.6 25.4-19.8 42.2-27.8 93.6-44.8 259.4-52.8 259.4-52.8z" fill="#f4ada2"/><path d="m1737.5 678.7c-4.5 18.1-9.5 35.5-14.9 52.4-.7 2-1.3 4-1.9 6-18.3 2-36.4 5.2-54.2 9.6-60.9 15.1-137.2 28.7-230.7 12.7l42.2-27.8c93.7-44.9 259.5-52.9 259.5-52.9z" fill="#9b3c82"/><path d="m955 531.5c.3.1.7.2 1 .2 1 0 1.9-.6 2.3-1.5.6-1.3 0-2.7-1.3-3.3-.2-.1-19.8-8.8-33.3-24.2-.1 0-1.6 1.3-3.1 3.9 14.1 15.8 33.5 24.5 34.4 24.9z" fill="#9b3c82"/><path d="m956.2 566.6c.3.1.5.1.8.1 1.1 0 2-.7 2.4-1.7.4-1.3-.3-2.7-1.6-3.2-.2-.1-17.8-6.1-31.1-21.1-1.2 1.4-2.1 2.9-2.6 4.5 13.8 15.1 31.3 21.1 32.1 21.4z" fill="#9b3c82"/><path d="m957 595.5c.3.1.6.2.9.2 1 0 2-.6 2.3-1.6.5-1.3-.1-2.7-1.4-3.2-7-2.7-20.4-10.3-26.1-18.2s-1.1 2.4-1.1 6.5c7.5 7.7 17.7 13.3 25.4 16.3z" fill="#9b3c82"/><path d="m1195.3 640.4c-22.4 11.6-42.9 26.5-60.8 44.2-3.3 3.3-6.7 6.8-9.9 10.4-12 13.3-22.5 27.9-31 43.7-.4.7-.7 1.3-1.1 2-1.9-2.7-3.9-5.3-6-8-10.3-13.3-21.3-26-32.9-38.1-1.9-2-3.8-4-5.7-5.9.6-.9 1.2-1.8 1.9-2.8 2-2.8 4.5-6.2 7.4-9.9 8.2-10.2 17-19.9 26.4-28.9 3-2.8 6.1-5.7 9.4-8.6 18.2-16.1 38.4-29.6 60.2-40.2 10.4 12.4 22.9 24.5 35.2 35.8 2.3 2.1 4.6 4.1 6.9 6.3-.1-.1 0 0 0 0z" fill="#5b2448"/><path d="m1096.4 634.7c-1.5 1.3-2.9 2.5-4.3 3.8 11.4 3.6 22.4 11.2 30.7 22.4 5.6 7.5 9.2 15.7 11.1 23.9 1.4-1.4 2.7-2.7 4.1-4-2.2-7.9-5.9-15.7-11.2-22.8-8.3-11.2-19.1-19.1-30.4-23.3z" fill="#fff"/><ellipse cx="1085.8" cy="688.8" fill="#5b2448" rx="46.8" ry="56.1" transform="matrix(.8033 -.5956 .5956 .8033 -196.6498 782.1876)"/><ellipse cx="1080.2" cy="693.8" fill="#fff" rx="40.4" ry="54.4" transform="matrix(.8033 -.5956 .5956 .8033 -200.7191 779.8505)"/><path d="m1077.3 701.2c-.7 0-1.4-.3-1.9-.8l-22.6-25.6c-.9-1-.8-2.6.2-3.5s2.6-.8 3.5.2l20.8 23.5 14.1-16.2c.9-1 2.5-1.1 3.5-.2s1.1 2.5.2 3.5l-16 18.3c-.4.4-1.1.8-1.8.8z" fill="#5b2448"/><path d="m1661.5 391.7c-52.9-81.2-121-90-160 33-31.3 98.8-43.9 247.3-65.8 334.6 0 0 96.5 4.1 208.8-47.6 113-52 193-36 221-10 0 0-66-65-111-147-56.9-103.5-70.9-129-93-163z" fill="#ffcf2d"/></svg></g><!--ITEM: Illustration component 4--><g transform="translate(138.0 30.0) rotate(0.0 -31.0 34.5)  scale(-0.12548067192875936 0.12635048525911005)"><svg width="494.1" height="546.1" viewBox="0.0 0.0 494.1 546.1"><path d="m296.2 462.9 50.5-382 .1-.4.8-.4 137.7-67.7-53 418.5z" fill="#66b0f0"/><path d="m492.1 9.8-50.9 409-1.2 9.3v.1l-.4 3.6c-.5 4.1-4.2 7.1-8.3 6.6-3.3-.4-5.8-2.8-6.5-5.8-.2-.8-.2-1.6-.1-2.5 0-.1 0-.1 0-.2l1.6-12.5.6-5 48.6-390.3-121.8 63.2-47 355.7-.7 5.3-2 14.7-.4 2.8c-.5 3.7-3.7 6.5-7.4 6.5-.3 0-.7 0-1-.1-4.1-.5-7-4.3-6.5-8.4l1.6-11.8.7-5.3 48.3-365.3c.3-2.4 1.8-4.6 4-5.7l.8-.4 137.1-71.1c3.7-1.9 8.2-.5 10.1 3.2.7 1.4 1 2.9.8 4.4z" fill="#ffcf2d"/><path d="m434.3 413.7c-2.1-.8-4.3-1.3-6.7-1.3-.3 0-.5 0-.8 0-1.1 0-2.2.2-3.3.5l-117 28.1-7.8 1.9-7.8 1.9-.7 5.3 15.6-3.8 118.8-28.6c.5-.1 1-.2 1.5-.3.5 0 .9-.1 1.4-.1.4 0 1.7.1 1.8.1.2 0 .5.1.7.1s.4.1.6.1c.5.1 1.1.3 1.6.5.1 0 .2.1.4.1.3.1.7.3 1 .5s.6.3.8.5c.1.1.2.2.4.2 1 .7 1.9 1.6 2.7 2.5.2.3.4.6.6.9.1.2.2.4.3.6.2.4.5.8.7 1.3.1.2.1.3.2.5.3.9.6 1.8.7 2.8l1.2-9.3c-1.8-2.1-4.2-3.9-6.9-5zm-427.6 108.6c.2-.4.4-.7.7-1.1-.3.4-.5.8-.7 1.1z" fill="#fff"/><path d="m430.6 442.1-408.4 98.2c-18.1 4.1-21.7-20.4-7.6-23.9l275.7-66.3 15.6-3.8 118.8-28.6s8.5-2.5 13.4 5.3c5.6 8.9-1.4 17.6-7.5 19.1z" fill="#9b3c82"/><g fill="#ffcf2d"><circle cx="412.7" cy="433.9" r="4.5"/><path d="m362.2 449.4c-2.2 0-4-1.8-4-4 0-1.9 1.3-3.5 3.1-3.9l30-7c2.2-.5 4.3.8 4.8 3s-.8 4.3-3 4.8l-30 7c-.3.1-.6.1-.9.1z"/></g></svg></g><!--ITEM: Illustration component 5--><g transform="translate(118.0 73.0) rotate(-21.446480942595247 8.0 8.0)  scale(0.13740392459959638 0.14672706931019935)"><svg width="116.445" height="109.046" viewBox="0.0 0.0 116.445 109.046"><g fill="#ffcf2d"><path d="m113.943 85.243a2.5 2.5 0 0 1 -2.5-2.434l-2.091-80.243a2.5 2.5 0 1 1 5-.131l2.094 80.243a2.5 2.5 0 0 1 -2.434 2.564z"/><path d="m63.827 109.046a2.483 2.483 0 0 1 -1.611-.59l-61.329-51.789a2.5 2.5 0 0 1 3.226-3.82l61.328 51.789a2.5 2.5 0 0 1 -1.614 4.41z"/></g></svg></g><!--ITEM: Illustration component 6--><g transform="translate(14.0 28.0) rotate(0.0 108.5 79.0)  scale(0.12126969934056107 0.12114706333384449)"><svg width="1789.4" height="1304.2" viewBox="0.0 0.0 1789.4 1304.2"><path d="m1451.6 177.3s23.5 58.4 73.5 98.4c23.9 19.1 42 36 106.1 55.1 90.1 26.8 123.9 92.9 110.9 177.9-9.3 60.5 8.6 94.7 27 127 54 95 0 224-160 254 0 0-29-89.4-100-204-93.6-151.1-159.3-413-120.2-483.2z" fill="#5b2448"/><path d="m1221.8 219.1c8.6 10.2 44.6 17 62.4 18.5 43.9 27.1 38.9 110.1 37.9 144.1 0 0 117.5 39 151-12 0 0-56-107-65.4-193.5.7.4 1.5.7 2.2 1.1 3.7 1.9 7.1 3.5 10.1 5 .4.2.8.4 1.2.6l.9.4c.5.3 1 .5 1.5.7 1.1.5 2.2 1 3.2 1.5.4.2.8.4 1.2.5 4 1.8 7.2 3.2 9.9 4.4.4.2.8.3 1.2.5s.7.3 1.1.5.7.3 1 .4.7.3 1 .4c.5.2 1 .4 1.4.6.2.1.5.2.7.3.9.4 1.8.7 2.6 1.1 50.1-37.6 62.2-128.5-6.2-173.7-.8-.5-1.5-1-2.3-1.5-.1 0-.1-.1-.2-.1-11.9-7.7-25-13.3-38.8-16.6-31.1-7.1-62.6 1.1-87.8 20.3-10.4 8.1-19.8 17.2-28.3 27.2-2.6 3-5 6.2-7.4 9.4l-.1.1c-3.2 4.3-6.2 8.8-9.2 13.2-2.2 3.2-4.4 6.3-6.7 9.4-3 4-6.5 8.9-10.6 12-4 3-9.1 3.9-14 4.5-10.5 1-6.5 15.6-1.1 21.9-7.2 18-33.4 73.7-12.4 98.8z" fill="#f4ada2"/><path d="m1266.8 72.7c54.8 62.3 120 92.5 120 92.5l-77.3-73.9-31.2-29.9-2.2-2.1-.1.1c-3.2 4.4-6.2 8.9-9.2 13.3z" fill="#9b3c82"/><circle cx="1318.4" cy="172.9" fill="#e57281" opacity=".52" r="25.4"/><path d="m1313.8 100.6c9.3 10.5 9.7 24 4.2 27.9s-17.2-2-24.4-14c-7.4-12.3-9.4-24.6-4.2-27.9 5.4-3.4 15.2 3.6 24.4 14z" fill="#5b2448"/><path d="m1241.3 164.8c2.1 1.5 4.6 2.4 7.2 2.6 2.6.3 5.1 0 7.6-.8 1.2-.4 2.3-1 3.3-1.7 1.1-.7 2-1.5 2.9-2.5 1.7-1.9 2.9-4.3 3.5-6.8v-.1c.3-1.2 1.5-2 2.7-1.7.9.2 1.6 1 1.7 1.9.4 3.8-.6 7.6-2.8 10.7-1.1 1.6-2.4 3-3.9 4.1s-3.2 2.1-5 2.7c-3.6 1.3-7.5 1.4-11.1.6-1.8-.4-3.6-1.1-5.2-2.1-1.7-1-3.1-2.3-4.2-3.9-.7-1-.4-2.4.6-3.1.8-.5 1.8-.5 2.6.1z" fill="#9b3c82"/><path d="m1290 123.3c-3.3-5-11.5-16.8-16.1-30.7-.6-1.9-2.7-3-4.7-2.3-5 1.7-12.6 5.9-8.3 15 5.4 11.1 21.3 21.7 27.7 21 1-.1 1.8-1.1 1.6-2.1.1-.4 0-.7-.2-.9z" fill="#5b2448"/><path d="m1624.7 217.2c-9.5 28.4-147.4-12.9-179.2-22.8-3.4-1.1-5.6-1.8-6.3-2-.2-.1-.3-.1-.3-.1s0 0 .1-.1l.2-.4 2.3-4.3 41.6-78.8s14 8.7 24.1 14.7c37.7 22.6 123.3 76.6 117.5 93.8z" fill="#f94f46"/><path d="m1507.2 123.4c-10.2 44.6-42.7 65.9-61.8 71-2.5.7-5.2 1.1-7.8 1.2l1.5-3.2 2.3-4.9 41.6-78.8c.2 0 14.2 8.7 24.2 14.7z" fill="#5b2448"/><path d="m1276 59.5c2.5 3.7 6.1 8.8 9.3 12.8 0 .1.1.1.1.1 5.2 6.6 11.7 14.2 19.1 22.2.6.7 1.2 1.3 1.7 1.8 24.2 26.1 56.6 55.8 80.6 68.7 8 4.3 15 7.9 21 11 .7.4 1.5.7 2.2 1.1 3.7 1.9 7.1 3.5 10.1 5 .4.2.8.4 1.2.6l.9.4c.5.3 1 .5 1.5.7 1.1.5 2.2 1 3.2 1.5.4.2.8.4 1.2.5 4 1.8 7.2 3.2 9.9 4.4.4.2.8.3 1.2.5s.7.3 1.1.5.7.3 1 .4 2 1.4 2.9 1.8c56.8-36.6 65.1-127.9-3.3-173.1-.8-.5-1.5-1-2.3-1.5-.1 0-.1-.1-.2-.1-11.9-7.7-25-13.3-38.8-16.6-31.1-7.1-62.6 1.1-87.8 20.3-1.8 1.3-3.5 2.7-5.2 4.1-8.3 7.1-16.1 14.8-23.1 23.1-2.7 3.4-5.1 6.5-7.5 9.8z" fill="#f94f46"/><path d="m1386.8 165.2s29.7-10.6 50 8.5c19.1 18 .5 51.5-48.3 53.1-9.9.1-19.7-1.4-29.1-4.5z" fill="#f4ada2"/><path d="m1374.2 222c-1.3-.5-2.7 0-3.3 1.3s0 2.7 1.2 3.3c.6.3 8.7 3.8 21.9 3.8 7.9-.1 15.7-1.3 23.3-3.5-.4-1.6-.8-3.3-1.2-4.9-24.7 7.4-41.7.1-41.9-0z" fill="#9b3c82"/><path d="m1342.4 234.4c-3.9-5.7-14.9-1.9-21.5-.5-13.1 2.9-23.3 4.4-36.7 3.7.5.3 1 .6 1.6 1 11.1 7.4 19 18.6 24.5 31.6 25-9 36.3-29.7 32.1-35.8z" fill="#5b2448"/><path d="m1373.2 200.9c-1.4 0-2.5-1.1-2.5-2.5 0-.8.4-1.5 1-2 25.8-20 48.1-7.2 49.1-6.7 1.2.7 1.6 2.2.9 3.4s-2.2 1.6-3.4.9c-.8-.5-20.4-11.5-43.5 6.3-.5.4-1.1.6-1.6.6z" fill="#9b3c82"/><path d="m1276 59.5c2.5 3.7 6.1 8.8 9.3 12.8 0 .1.1.1.1.1 5.2 6.6 11.7 14.2 19.1 22.2.6.7 1.2 1.3 1.7 1.8 8.6-5.8 19.1-20.3 19.7-33.5s-5.6-25.9-19.3-36c-8.3 7.1-16.1 14.8-23.1 23.1-2.7 3.1-5.1 6.2-7.5 9.5z" fill="#5b2448"/><path d="m1433.2 827.7c80.3 5.7 227.7-10.2 253 37 22 41-128 68-308.7-11.1-.1 0 39.2-27.1 55.7-25.9z" fill="#5b2448"/><path d="m371.9 1286.3c-14-.8-27.2-1.5-39.7-2.3-2.2-.1-4.4-.2-6.6-.4-.8 0-1.5-.1-2.3-.1-5.4-.3-10.6-.6-15.7-.9-61.4-3.6-97.5-5.9-97.5-5.9s-63.6-23.2-46-155c0 0 60.1-4.1 125.9-11 14.3-1.5 28.8-3.2 43.1-5z" fill="#f4ada2"/><path d="m307.6 1282.6c-61.4-3.6-97.5-5.9-97.5-5.9s-63.6-23.2-46-155c0 0 60.1-4.1 125.9-11z" fill="#66b0f0"/><path d="m276.9 1280.8-17.9-167c-3.4.3-6.7.6-10 .9l17.7 165.5c3.3.2 6.7.4 10.2.6z" fill="#fff"/><path d="m371.9 1286.3c-14-.8-27.2-1.5-39.7-2.3-2.2-.1-4.4-.2-6.6-.4-3-45.3 1.9-127.7 7.5-178z" fill="#9b3c82"/><path d="m1570.1 797.4c80.1 156.3 108.7 260.3 23.9 384.3s-251.8 112-308.8 92c-214 17-360-72-454-55s-238 83-459.3 67.6c0 0-29.7-111.6-38.7-180.6l345-41 55-45s-110-17-171-92c0 0 194-313 362-298 163.9 14.6 410 219 410 219z" fill="#f94f46"/><path d="m926.2 964.9c1-.5 2.1-.2 2.7.8 5.3-43.2 15.3-94.5 34.1-131.1.5-1 .1-2.2-.9-2.7s-2.2-.1-2.7.9c-22.7 44.4-32.8 110-37.1 157.2-5.1 54.8-4.7 107.4-2.3 133.1.1 1 1 1.8 2 1.8h.2c1.1-.1 1.9-1.1 1.8-2.2-2.5-25.5-2.8-77.8 2.3-132.3.5-5.7 1.2-11.7 1.9-18-.9-1.6-1.8-3.2-2.7-4.8-.6-.9-.3-2.1.7-2.7z" fill="#fcb6b1"/><path d="m1076.4 1139.2c-63.5-57.5-121.4-125.6-147.5-173.4-.5-.9-1.7-1.3-2.7-.8s-1.3 1.7-.8 2.7c.9 1.6 1.8 3.2 2.7 4.8 27.7 48.4 82.9 112.9 145.7 169.7 69.8 63.2 140.5 109.5 201.6 132.3 3.3-.2 6.6-.4 9.9-.7 1.9.7 3.9 1.3 6 1.9-63.8-20.3-139.9-68.6-214.9-136.5z" fill="#fcb6b1"/><path d="m974.1 1189.4c-.1-1.1-1.2-1.9-2.2-1.7-36.3 4.9-72.9 11.9-141.4 31.1.2 0 .4-.1.6-.1 7.2-1.3 14.8-2 22.7-2.1 54.4-14.6 86.7-20.6 118.6-24.9 1.1-.2 1.9-1.2 1.7-2.3z" fill="#fcb6b1"/><path d="m35.1 894c-15 11.4-32.6 44-32.6 102.1v282.5c58.7-8 128.7-5 208.8-2.8-4.2-39.2-28.2-53.2-33.2-88.2-6.7-47.2 3.1-45.5-20.7-123.8-.4-1.3-.7-2.5-1-3.8-.1-.4-.2-.7-.3-1-5.9-21.5-13.8-42.3-23.7-62.2-38.6-76.7-91.5-100.4-96.8-102.6-.1-.1-.2-.1-.3-.1-.2-.1-.2-.1-.2-.1z" fill="#fff"/><path d="m2.5 1281.2c-1.4 0-2.5-1.1-2.5-2.5v-282.6c0-57.8 17.3-91.7 33.5-104.1.7-.5 1.6-.7 2.5-.3h.1c.1 0 .3.1.4.2s.1 0 .1.1c6.8 2.9 62.1 28.2 100.5 104.7 10 20.1 18 41.1 23.9 62.7l.3 1c.1.5.2.9.4 1.3.2.8.4 1.6.7 2.4 5.1 16.9 11.4 45.7 12.4 57.2.1 1.4-.9 2.6-2.3 2.7s-2.6-.9-2.7-2.3c-1-11.2-7.1-39.5-12.2-56.1-.3-.9-.5-1.7-.7-2.6-.1-.4-.2-.8-.3-1.3l-.3-1c-5.8-21.3-13.7-42-23.6-61.8-36.5-72.4-87.9-97.9-97.2-102-15 12.4-30.5 44.6-30.5 99.2v279.8c67.3-6.6 113.7-5.2 167.2-3.7 12.1.4 24.6.7 37.6 1 1.4 0 2.5 1.2 2.4 2.6 0 1.4-1.2 2.5-2.6 2.4-13.1-.3-25.6-.7-37.7-1-54.1-1.6-100.8-3-169.4 4 .2 0 .1 0 0 0z" fill="#5b2448"/><path d="m109.6 1275.7c-1.3 0-2.4-1-2.5-2.2-.1-.7-1.7-18.6 15.3-42.9 3.6-5.1 6.7-9.2 9.5-12.8 10.5-13.6 15.7-20.4 19.1-46.8.2-1.4 1.5-2.3 2.8-2.1s2.3 1.4 2.1 2.8c-3.6 27.8-9.4 35.4-20.1 49.2-2.8 3.6-5.9 7.7-9.4 12.6-16 22.7-14.5 39.3-14.5 39.5.1 1.4-.9 2.6-2.2 2.7.1 0 0 0-.1 0z" fill="#5b2448"/><path d="m58.7 1276.7c-1.4 0-2.5-1.1-2.5-2.5 0-.7.3-1.4.8-1.9.4-.3 24.3-22.6 19.6-57.6-2.1-15.9-8.5-24-15.3-32.5-5.1-6.5-10.4-13.2-13.7-23.4-4.2-12.9-2.6-22.3-1-31.4 1.8-10.6 3.7-21.6-3.8-39.2-12.2-28.9-19.3-56.7-21.3-82.5-3-39.7 6.2-74.9 27.2-104.7.8-1.1 2.4-1.4 3.5-.6s1.4 2.4.6 3.5c-20.3 28.8-29.2 63-26.3 101.4 1.9 25.3 8.9 52.5 20.9 80.9 8 19 6 30.7 4.1 42-1.5 8.9-2.9 17.3.8 29 3 9.3 7.8 15.4 12.9 21.8 6.9 8.7 14 17.7 16.3 35 5.1 37.8-20.2 61-21.2 62-.4.5-1 .7-1.6.7z" fill="#5b2448"/><path d="m36.4 1252.1c-11.5 0-20.5-14.6-20.5-33.3s9-33.3 20.5-33.3 20.5 14.6 20.5 33.3-9 33.3-20.5 33.3zm0-61.6c-8.4 0-15.5 13-15.5 28.3s7.1 28.3 15.5 28.3 15.5-13 15.5-28.3-7.1-28.3-15.5-28.3z" fill="#5b2448"/><path d="m104.4 1120c-4.1 0-7.5-3.3-7.5-7.5 0-3 1.8-5.7 4.5-6.9.1 0 8.5-3.8 18.4-12.9 13.3-12.1 23-27.5 28.8-45.6 1.3-3.9 5.5-6.1 9.4-4.9s6.1 5.5 4.9 9.4c-16 50-53.9 67-55.5 67.7-.9.5-1.9.7-3 .7z" fill="#ffcf2d"/><path d="m91.2 1085.7c-4.1 0-7.5-3.4-7.5-7.5 0-2.8 1.6-5.4 4.1-6.7.3-.2 35.5-18.7 45.4-61 .9-4 4.9-6.6 9-5.7 4 .9 6.6 4.9 5.7 9v.1c-11.5 49.3-51.5 70.1-53.2 71-1.1.5-2.3.8-3.5.8z" fill="#ffcf2d"/><path d="m80.7 1046.1c-4.1 0-7.5-3.3-7.5-7.5 0-2.8 1.5-5.3 4-6.6.3-.2 30.1-16.8 38.5-54.9.9-4 4.9-6.6 8.9-5.7s6.6 4.9 5.7 8.9c-9.9 45-44.6 64.1-46 64.9-1.2.5-2.4.8-3.6.9z" fill="#ffcf2d"/><path d="m1213.2 652.7c57 44 125.9 82.4 198 103 42 12 147 36 129 77-19.7 44.7-163 21-327-180z" fill="#5b2448"/><path d="m1466.2 771c-4.2 15.6-9.2 31-15 46.1-.5 1.2-1 2.5-1.5 3.7-133.5 329.8-498-38.6-578.5-93.2-65.7-44.6-112-36-161-52s-37-39-37-39c-15-26-5-34-5-34-19-24-12-43-12-43-6.9-7.6-13.2-15.6-19-24-37.9-56.8 14-17 37-7-30-36 2.6-17.1 61-8 58 9 112.1 27.6 152 40 129 40 315 131 315 131s4-13 8-27z" fill="#f4ada2"/><g fill="#9b3c82"><path d="m1466.2 771c-4.2 15.6-9.2 31-15 46.1-73-19.5-181-86.5-241-152.5z"/><path d="m1251.7 727.7c.7 0 1.4-.3 1.9-.8.9-1 .8-2.6-.2-3.5-.2-.2-19.7-17.5-49.9-36.2-.9 2.9-1.3 4.4-1.3 4.4 30.3 18.7 47.6 35.4 47.8 35.6.4.3 1 .5 1.7.5z"/><path d="m702.8 591.6c1 0 1.9-.6 2.3-1.6.5-1.3-.1-2.7-1.4-3.3-19.9-8.1-37.5-18-47.6-26.9-.2.6-.8 2.6-1 5.7 15.1 12.2 37.3 22 46.8 25.8.2.2.6.3.9.3z"/><path d="m702.5 625.8c1.1 0 2-.7 2.4-1.7.5-1.3-.2-2.7-1.5-3.2-9.4-3.4-25-9.8-35.3-18.2-.4.4-1.7 1.7-2.5 4.4 11 8.6 26.6 15 36.1 18.4.2.3.5.3.8.3z"/><path d="m703.4 656c1.1 0 2.1-.7 2.4-1.8.4-1.3-.4-2.7-1.7-3.1-8.6-2.4-20.6-6.7-30.9-14.5s-1 1.9-1.3 5.1c10.5 7.4 22.3 11.7 30.8 14.1.2.2.5.2.7.2z"/><path d="m737 548c1.3 0 2.4-1 2.5-2.3.1-1.4-.9-2.6-2.3-2.7-15.6-1.1-41.6-8-70.4-23.9 1.8 2.6 4.2 5.7 7.3 9.4 22.3 11 45.1 18.2 62.8 19.4 0 .1.1.1.1.1z"/></g><path d="m1322.2 381.7c34.8-43.7 81-81 134-16l17 4c89 165 133 382 213 495-16-23-103-30-146-32 9-34-46-45.2-138-75-111-36-192-93-192-93s61-219 112-283z" fill="#ffcf2d"/><path d="m1461.1 366.9-5-1.2c-.2-.3-.5-.6-.7-.8 35.5 62.1 42.1 150.8 49.1 244.5 5.1 68.2 10.3 138.6 27.8 198.4 3.6 3.3 6.1 6.9 7.5 10.7-20.3-61.7-25.9-136.7-31.3-209.3-6.8-92.4-13.4-179.7-47.4-242.3z" fill="#fff"/><path d="m562.2 927.7c62 72 143 86 171 92s244.9 59.6 178.2 130.2c-63.2 66.8-270.2-81.2-349.2-222.2z" fill="#5b2448"/><path d="m733.2 1019.7c-5.7 4.4-21.5 18.4-38 33.3-9.7 8.7-19.5 17.7-27.8 25.2-23.3 21.3-43.6 40-43.6 40-57.1 11.9-97.3-10.4-121.8-32.5-19.4-17.5-34.8-32.9-34.8-32.9s34.8-44.4 67.7-88.1c1.1-1.5 2.3-3 3.4-4.5 8.4-11.2 16.6-22.2 23.9-32.3 62 68.8 137 83.8 171 91.8z" fill="#f4ada2"/><path d="m733.2 1019.7c-5.7 4.4-21.5 18.4-38 33.3-41-20.7-98-62.3-133-125.3 62 69 137 84 171 92z" fill="#9b3c82"/><path d="m667.3 1078.2c-23.3 21.3-43.6 40-43.6 40-57.1 11.9-97.3-10.4-121.8-32.5-19.4-17.5-34.8-32.9-34.8-32.9s34.8-44.4 67.7-88.1z" fill="#66b0f0"/><path d="m646.6 1097.1-129.9-108.6c-2 2.7-4.1 5.3-6.1 8l128.6 107.4c2.3-2.1 4.8-4.4 7.4-6.8z" fill="#fff"/><path d="m226.7 1012.6c-1.7 19.2 10.8 55 54.6 95.1l213.7 195.3c36.1-54.3 75.1-106.3 129.1-184.3-38-28-72.4-12.3-98-31-24.8-18.1-56-33-86.6-50.3-1.2-.7-2.4-1.2-3.6-1.8-.3-.2-.7-.3-1-.5-20.3-10.4-41.5-18.8-63.4-25.1-84.6-23.8-139-.2-144.4 2.3-.1.1-.2.1-.3.1z" fill="#fff"/><path d="m494.1 1304.2c-.6 0-1.2-.2-1.7-.7l-212.7-194c-43.7-39.9-57.3-76.4-55.5-97.2.1-.9.6-1.7 1.4-2s.1 0 .1-.1c.1-.1.2-.1.4-.2s.1 0 .1-.1c6.9-3.2 64.2-27.4 148.5-3.6 16.7 4.7 73.6 33.4 94.1 44.6 1.2.7 1.7 2.2 1 3.4s-2.2 1.7-3.4 1c-19.8-10.8-77-39.7-93.1-44.2-80-22.5-134.8-1.1-144.3 3-1 19.8 12.6 53.9 53.9 91.6l210.6 192.1c26.8-40.5 52.1-75 81.3-114.8 14.8-20.2 30.1-41 47.6-65.4.8-1.1 2.4-1.4 3.5-.6s1.4 2.4.6 3.5c-17.5 24.4-32.9 45.2-47.7 65.4-29.8 40.5-55.5 75.5-82.8 117-.3.9-1 1.3-1.9 1.3zm-267.7-292.6.5.9z" fill="#5b2448"/><path d="m562.6 1204.7c-.4 0-.8-.1-1.2-.3-1.2-.7-29.3-16.6-34.3-46.8-4.7-29-6.9-38.3-26.1-58.1-1-1-.9-2.6.1-3.5 1-1 2.6-.9 3.5.1 20.1 20.9 22.6 31.2 27.4 60.8 4.5 27.8 31.5 43.1 31.7 43.2 1.2.7 1.6 2.2 1 3.4-.3.7-1.1 1.2-2.1 1.2z" fill="#5b2448"/><path d="m529.7 1251.7c-1.4 0-2.5-1.1-2.5-2.5 0-.5-.6-26.1-29.4-46.6-13.4-9.5-24-10.3-35.2-11-8.4-.6-17.1-1.2-27.1-5.7-12.6-5.8-18.6-13.5-24.4-20.9-6.8-8.7-13.8-17.7-32.3-24.3-30.3-10.8-56.2-24.5-77-40.9-32-25.1-52.3-56.4-60.3-92.8-.3-1.3.6-2.7 1.9-3s2.7.6 3 1.9c7.7 35.3 27.4 65.6 58.5 90 20.4 16 45.8 29.5 75.6 40.1 19.9 7.1 27.3 16.7 34.5 25.9 5.7 7.3 11 14.2 22.5 19.4 9.1 4.2 17 4.7 25.3 5.3 11.4.8 23.1 1.6 37.7 11.9 31.2 22.1 31.5 49.5 31.5 50.7.2 1.4-1 2.5-2.3 2.5z" fill="#5b2448"/><path d="m485.9 1263.7c-8.2 0-18.2-4.3-27-12.3-14.1-12.9-18.9-29.8-11-38.4s25.2-5.4 39.3 7.5 18.9 29.8 11 38.4c-3 3.2-7.4 4.8-12.3 4.8zm-25.8-50.6c-3.5 0-6.5 1-8.5 3.2-5.8 6.4-1 20.8 10.7 31.4s26.4 14.2 32.2 7.8 1-20.8-10.7-31.4c-7.7-7-16.8-11-23.7-11z" fill="#5b2448"/><path d="m425.5 1111.9c-4.1 0-7.5-3.4-7.5-7.5 0-.8.1-1.7.4-2.4.1-.3 11.5-35.8-11.6-76.2-2.1-3.6-.8-8.2 2.8-10.2 3.6-2.1 8.2-.8 10.2 2.8 26.6 46.5 13.3 86.8 12.8 88.5-1 3-3.9 5-7.1 5z" fill="#ffcf2d"/><path d="m390.4 1098.2c-4.1 0-7.5-3.4-7.5-7.5 0-.7.1-1.4.3-2 .1-.4 10.4-39.9-14.8-76.6-2.3-3.4-1.5-8.1 1.9-10.4s8.1-1.5 10.4 1.9c29.3 42.7 17.4 87.2 16.9 89.1-.8 3.2-3.8 5.5-7.2 5.5z" fill="#ffcf2d"/><path d="m353.2 1078.8c-4.1 0-7.5-3.4-7.5-7.5 0-.6.1-1.2.2-1.8.1-.3 8.1-34.4-14.9-67.1-2.4-3.4-1.6-8.1 1.8-10.5s8.1-1.6 10.5 1.8c27.1 38.5 17.6 77.8 17.2 79.4-.8 3.4-3.8 5.7-7.3 5.7z" fill="#ffcf2d"/></svg></g><!--ITEM: Text 7--><g transform="translate(28.0 157.0) rotate(0.0 116.0 57.0)  scale(1.0 1.0)"><svg width="232.0" height="114.0" viewBox="0.0 0.0 232.0 114.0"><g transform="translate(30 30)">
      <path fill="#2E6DDB" stroke="#2E6DDB" d="M4.41 26.34L4.41 26.34Q4.41 28.23 4.91 29.77Q5.40 31.32 6.29 32.43Q7.17 33.54 8.40 34.14Q9.63 34.74 11.10 34.74L11.10 34.74Q12.57 34.74 13.65 34.39Q14.73 34.05 15.75 33.45L15.75 33.45L16.62 35.82Q15.51 36.42 14.08 36.82Q12.66 37.23 10.77 37.23L10.77 37.23Q8.70 37.23 7.00 36.48Q5.31 35.73 4.08 34.34Q2.85 32.94 2.17 30.94Q1.50 28.95 1.50 26.46L1.50 26.46Q1.50 24.06 2.17 22.05Q2.85 20.04 4.11 18.58Q5.37 17.13 7.15 16.32Q8.94 15.51 11.13 15.51L11.13 15.51Q12.66 15.51 13.88 15.79Q15.09 16.08 16.17 16.59L16.17 16.59L15.30 18.99Q14.37 18.54 13.39 18.27Q12.42 18.00 11.10 18.00L11.10 18.00Q9.66 18.00 8.43 18.55Q7.20 19.11 6.30 20.19Q5.40 21.27 4.91 22.81Q4.41 24.36 4.41 26.34ZM30.90 29.07L30.90 29.07Q30.90 27.90 30.52 26.85Q30.15 25.80 29.48 25.02Q28.80 24.24 27.89 23.77Q26.97 23.31 25.89 23.31L25.89 23.31Q23.52 23.31 22.20 24.87Q20.88 26.43 20.88 29.01L20.88 29.01Q20.88 30.18 21.26 31.24Q21.63 32.31 22.30 33.10Q22.98 33.90 23.90 34.36Q24.81 34.83 25.89 34.83L25.89 34.83Q27.06 34.83 27.99 34.41Q28.92 33.99 29.57 33.22Q30.21 32.46 30.55 31.41Q30.90 30.36 30.90 29.07ZM18.12 29.07L18.12 29.07Q18.12 27.18 18.72 25.66Q19.32 24.15 20.36 23.10Q21.39 22.05 22.82 21.48Q24.24 20.91 25.89 20.91L25.89 20.91Q27.51 20.91 28.94 21.48Q30.36 22.05 31.41 23.10Q32.46 24.15 33.06 25.65Q33.66 27.15 33.66 29.01L33.66 29.01Q33.66 30.87 33.08 32.38Q32.49 33.90 31.44 34.98Q30.39 36.06 28.97 36.64Q27.54 37.23 25.89 37.23L25.89 37.23Q24.21 37.23 22.79 36.63Q21.36 36.03 20.33 34.95Q19.29 33.87 18.71 32.37Q18.12 30.87 18.12 29.07ZM48.84 29.07L48.84 29.07Q48.84 27.90 48.46 26.85Q48.09 25.80 47.41 25.02Q46.74 24.24 45.83 23.77Q44.91 23.31 43.83 23.31L43.83 23.31Q41.46 23.31 40.14 24.87Q38.82 26.43 38.82 29.01L38.82 29.01Q38.82 30.18 39.20 31.24Q39.57 32.31 40.24 33.10Q40.92 33.90 41.84 34.36Q42.75 34.83 43.83 34.83L43.83 34.83Q45 34.83 45.93 34.41Q46.86 33.99 47.50 33.22Q48.15 32.46 48.49 31.41Q48.84 30.36 48.84 29.07ZM36.06 29.07L36.06 29.07Q36.06 27.18 36.66 25.66Q37.26 24.15 38.30 23.10Q39.33 22.05 40.75 21.48Q42.18 20.91 43.83 20.91L43.83 20.91Q45.45 20.91 46.88 21.48Q48.30 22.05 49.35 23.10Q50.40 24.15 51 25.65Q51.60 27.15 51.60 29.01L51.60 29.01Q51.60 30.87 51.02 32.38Q50.43 33.90 49.38 34.98Q48.33 36.06 46.91 36.64Q45.48 37.23 43.83 37.23L43.83 37.23Q42.15 37.23 40.73 36.63Q39.30 36.03 38.27 34.95Q37.23 33.87 36.64 32.37Q36.06 30.87 36.06 29.07ZM57.75 14.67L57.75 31.71Q57.75 33.33 58.42 34.11Q59.10 34.89 60.30 34.89L60.30 34.89Q60.87 34.89 61.41 34.75Q61.95 34.62 62.37 34.44L62.37 34.44L63.03 36.63Q62.49 36.87 61.69 37.05Q60.90 37.23 59.94 37.23L59.94 37.23Q58.89 37.23 58.00 36.93Q57.12 36.63 56.46 36Q55.80 35.37 55.42 34.38Q55.05 33.39 55.05 31.98L55.05 31.98L55.05 14.67L57.75 14.67ZM80.40 26.07L89.91 35.19L87.93 37.23L77.73 27.21L77.73 36.87L74.88 36.87L74.88 15.87L77.73 15.87L77.73 25.44L86.67 15.78L88.59 17.55L80.40 26.07ZM95.31 21.27L95.31 36.87L92.61 36.87L92.61 21.27L95.31 21.27ZM93.96 18.60L93.96 18.60Q93.18 18.60 92.63 18.04Q92.07 17.49 92.07 16.71L92.07 16.71Q92.07 15.84 92.58 15.33Q93.09 14.82 93.96 14.82L93.96 14.82Q94.74 14.82 95.29 15.38Q95.85 15.93 95.85 16.71L95.85 16.71Q95.85 17.58 95.34 18.09Q94.83 18.60 93.96 18.60ZM106.02 37.23L106.02 37.23Q104.58 37.23 103.30 36.66Q102.03 36.09 101.08 35.04Q100.14 33.99 99.60 32.50Q99.06 31.02 99.06 29.16L99.06 29.16Q99.06 27.39 99.61 25.88Q100.17 24.36 101.11 23.27Q102.06 22.17 103.32 21.54Q104.58 20.91 105.99 20.91L105.99 20.91Q107.55 20.91 108.67 21.54Q109.80 22.17 110.43 22.83L110.43 22.83L110.43 14.67L113.13 14.67L113.13 33.09Q113.13 34.23 113.68 34.57Q114.24 34.92 114.90 34.92L114.90 34.92L114.33 37.02Q111.48 37.02 110.85 34.74L110.85 34.74Q110.16 35.70 108.99 36.46Q107.82 37.23 106.02 37.23ZM106.62 34.83L106.62 34.83Q107.73 34.83 108.73 34.30Q109.74 33.78 110.43 32.94L110.43 32.94L110.43 25.20Q109.86 24.48 108.85 23.86Q107.85 23.25 106.59 23.25L106.59 23.25Q105.51 23.25 104.63 23.70Q103.74 24.15 103.11 24.93Q102.48 25.71 102.15 26.77Q101.82 27.84 101.82 29.07L101.82 29.07Q101.82 30.33 102.18 31.38Q102.54 32.43 103.18 33.20Q103.83 33.96 104.71 34.39Q105.60 34.83 106.62 34.83Z" stroke-width="0"/>
    </g>
  </svg></g></svg>